<?xml version="1.0" encoding="UTF-8"?>
<svg version="1.1" xmlns="http://www.w3.org/2000/svg" viewBox="0 0 1254 1254" width="100%" height="100%">
<path d="M0 0 C413.82 0 827.64 0 1254 0 C1254 413.82 1254 827.64 1254 1254 C840.18 1254 426.36 1254 0 1254 C0 840.18 0 426.36 0 0 Z " fill="#FDFDFD" transform="translate(0,0)"/>
<path d="M0 0 C2.54561767 -0.00542655 5.09123219 -0.01255218 7.63684082 -0.02124023 C13.80777166 -0.03752852 19.97844712 -0.03522484 26.14938106 -0.02358967 C31.1675853 -0.0145229 36.18573506 -0.01334529 41.20394516 -0.01768494 C41.92060176 -0.01829787 42.63725836 -0.0189108 43.37563183 -0.01954231 C44.83188886 -0.02082132 46.28814587 -0.02211817 47.74440287 -0.02343267 C61.36871487 -0.03481266 74.99291884 -0.02176459 88.61721312 -0.00023121 C100.28880805 0.01764513 111.96024385 0.0145263 123.63183594 -0.00390625 C137.21348908 -0.0253455 150.79504784 -0.03372231 164.37671554 -0.0214572 C165.82673445 -0.0201831 167.27675337 -0.01892562 168.72677231 -0.01768494 C169.7967013 -0.01675928 169.7967013 -0.01675928 170.88824502 -0.01581493 C175.89716015 -0.01237175 180.90601502 -0.01816786 185.91492081 -0.02760315 C192.663666 -0.04003746 199.4120655 -0.03109862 206.16079712 -0.00802612 C208.63307066 -0.0027503 211.10536955 -0.0042334 213.5776329 -0.01307678 C216.96063138 -0.02405968 220.34267809 -0.01023442 223.72561646 0.00964355 C224.6963542 0.00072067 225.66709194 -0.00820222 226.66724598 -0.0173955 C243.67916899 0.17557699 253.55661606 9.92584313 264.86669922 21.32226562 C265.91430128 22.37106321 266.96227706 23.41948764 268.01060486 24.46755981 C270.19630445 26.65481456 272.37863337 28.84535699 274.55834961 31.03857422 C277.33238219 33.82958424 280.11293981 36.61397832 282.89585209 39.39613152 C285.05732705 41.55788031 287.21617162 43.72224021 289.37417412 45.88745499 C290.39770614 46.91413689 291.42181646 47.94024264 292.44655037 48.96572495 C297.49845608 54.02536528 302.43220742 59.13041755 307.09059143 64.55770874 C310.54262752 68.44382487 314.28396957 72.04934389 317.98388672 75.69726562 C319.74769598 77.44842935 321.51136349 79.19973584 323.27490234 80.95117188 C326.02220731 83.67370867 328.77109593 86.39460615 331.52270508 89.11279297 C334.20178648 91.76143298 336.87441483 94.41645621 339.54638672 97.07226562 C340.35808823 97.87050751 341.16978973 98.66874939 342.00608826 99.49118042 C361.39884994 118.79968198 361.39884994 118.79968198 361.96034414 131.41033643 C361.96213271 132.54396936 361.96392128 133.67760229 361.96576405 134.84558773 C361.97022189 136.15529158 361.97467973 137.46499542 361.97927266 138.81438726 C361.97918337 140.27143539 361.97899352 141.72848351 361.97871399 143.18553162 C361.98201339 144.73064471 361.98573912 146.27575694 361.98985547 147.82086807 C361.99987521 152.07372576 362.00359223 156.32656932 362.00624478 160.57943714 C362.01014799 165.16384981 362.01972643 169.74825132 362.02845764 174.33265686 C362.04822324 185.40864118 362.05828913 196.48462642 362.06718543 207.56062397 C362.07156883 212.77752355 362.07693557 217.99442211 362.0821743 223.21132088 C362.09918792 240.55603926 362.11368126 257.900757 362.12092304 275.24548244 C362.12283292 279.74690692 362.12475325 284.2483314 362.12670898 288.74975586 C362.12719272 289.86855497 362.12767646 290.98735408 362.12817486 292.1400562 C362.13647201 310.25672486 362.16180302 328.37332741 362.19428966 346.48996722 C362.2273772 365.09355211 362.2453734 383.69710343 362.24856728 402.30071789 C362.25073098 412.74441409 362.25945901 423.18801394 362.28502846 433.63168144 C362.30675871 442.52780453 362.31477448 451.42380789 362.30506168 460.31995451 C362.30052351 464.85625834 362.30237495 469.39231525 362.32182312 473.92858505 C362.33950258 478.08838008 362.33841859 482.24774893 362.32292583 486.40754879 C362.32055696 487.90563698 362.32483558 489.40375506 362.33675448 490.9017977 C362.46296613 507.82472289 357.84438517 521.83629377 346.22216797 534.34570312 C333.59172931 545.82041537 320.39637041 547.99295372 303.88232422 547.81054688 C302.37347337 547.80493814 300.86461698 547.80067409 299.35575867 547.79768372 C295.42168578 547.7863353 291.48795545 547.75695698 287.55401611 547.72357178 C283.52482738 547.69265259 279.49558225 547.67913213 275.46630859 547.6640625 C267.58789776 547.63207543 259.70976321 547.58100352 251.83154297 547.51757812 C251.69055176 548.62673584 251.54956055 549.73589355 251.40429688 550.87866211 C250.59234899 556.03726538 248.23873038 558.70588445 244.83154297 562.51757812 C244.34943359 563.06671875 243.86732422 563.61585938 243.37060547 564.18164062 C235.27597606 572.19409106 223.33230051 574.07698562 212.44992065 574.19522095 C211.06524292 574.18550568 209.6805688 574.17526524 208.29589844 574.16455078 C206.79607083 574.17134669 205.29625158 574.18026076 203.79644775 574.19110107 C199.76746095 574.21366341 195.73912281 574.20515619 191.7101264 574.18920565 C187.46901717 574.17643025 183.22795864 574.1883183 178.98684692 574.19613647 C171.87068846 574.20519751 164.75479065 574.1933368 157.63867188 574.16943359 C149.43935696 574.14220806 141.24066357 574.15106094 133.0413636 574.17856562 C125.96828714 574.20133233 118.8953966 574.20442064 111.82229531 574.19137228 C107.61228074 574.1836218 103.40255737 574.18241396 99.1925621 574.19905472 C95.2342653 574.21361195 91.27676212 574.20327564 87.31855011 574.17458344 C85.8755156 574.168033 84.43241303 574.16976536 82.98940659 574.18089676 C70.88654148 574.26557602 60.47740304 572.00746984 51.52294922 563.40820312 C46.82239281 558.1540015 44.70545579 554.64210974 44.83154297 547.51757812 C43.57818901 547.53423271 43.57818901 547.53423271 42.29951477 547.55122375 C34.37165315 547.65198526 26.44401084 547.72782441 18.51565266 547.77663898 C14.44089953 547.80258016 10.36668157 547.83768872 6.29223633 547.89477539 C2.34994034 547.94965614 -1.59184548 547.9791146 -5.5344944 547.99196434 C-7.02822702 548.00110497 -8.52193611 548.01895049 -10.01544762 548.04622841 C-26.60582671 548.33680605 -39.14439241 543.18010216 -51.29345703 532.01757812 C-56.85539907 526.27398635 -60.22614669 519.88506077 -63.16845703 512.51757812 C-63.42805855 511.89152579 -63.68766008 511.26547346 -63.95512831 510.62044984 C-67.05803691 501.97770731 -66.58548176 493.06193968 -66.54940796 484.01506042 C-66.55286737 482.12653356 -66.55763383 480.23800872 -66.56358969 478.34948808 C-66.5760907 473.1752035 -66.5699333 468.00108533 -66.56063104 462.82680023 C-66.5538371 457.24043338 -66.56432359 451.65409495 -66.5725708 446.06773376 C-66.58590739 435.12921293 -66.58303047 424.19075386 -66.57433288 413.25223061 C-66.56755543 404.36003104 -66.56663989 395.46784877 -66.56990433 386.57564735 C-66.57036403 385.3096402 -66.57082373 384.04363305 -66.57129735 382.73926205 C-66.57225654 380.16728589 -66.57322918 377.59530974 -66.57421513 375.02333359 C-66.58252526 351.59475562 -66.57390889 328.16621724 -66.55818734 304.73764695 C-66.54395616 283.36764177 -66.54522052 261.99769025 -66.55957031 240.62768555 C-66.57564946 216.60215455 -66.58193998 192.57665706 -66.57273352 168.55111867 C-66.57177789 165.98773118 -66.57083478 163.42434369 -66.56990433 160.86095619 C-66.5694415 159.59977282 -66.56897867 158.33858946 -66.56850182 157.03918841 C-66.56591407 148.16150124 -66.57027842 139.28383313 -66.57734299 130.40614891 C-66.58576761 119.58147494 -66.58345777 108.7568662 -66.56750076 97.93219968 C-66.5596303 92.41163176 -66.55650553 86.89117252 -66.56644821 81.37060547 C-66.57542121 76.31180887 -66.57041935 71.25322117 -66.55451556 66.19444338 C-66.55117872 64.36949151 -66.55283697 62.54452181 -66.56014292 60.71958151 C-66.62658721 42.73567853 -64.28089715 27.20160564 -51.41845703 13.58398438 C-36.27822733 -0.32084464 -19.35289744 -0.06935007 0 0 Z " fill="#FCFCFC" transform="translate(479.16845703125,187.482421875)"/>
<path d="M0 0 C2.54561767 -0.00542655 5.09123219 -0.01255218 7.63684082 -0.02124023 C13.80777166 -0.03752852 19.97844712 -0.03522484 26.14938106 -0.02358967 C31.1675853 -0.0145229 36.18573506 -0.01334529 41.20394516 -0.01768494 C41.92060176 -0.01829787 42.63725836 -0.0189108 43.37563183 -0.01954231 C44.83188886 -0.02082132 46.28814587 -0.02211817 47.74440287 -0.02343267 C61.36871487 -0.03481266 74.99291884 -0.02176459 88.61721312 -0.00023121 C100.28880805 0.01764513 111.96024385 0.0145263 123.63183594 -0.00390625 C137.21348908 -0.0253455 150.79504784 -0.03372231 164.37671554 -0.0214572 C165.82673445 -0.0201831 167.27675337 -0.01892562 168.72677231 -0.01768494 C169.7967013 -0.01675928 169.7967013 -0.01675928 170.88824502 -0.01581493 C175.89716015 -0.01237175 180.90601502 -0.01816786 185.91492081 -0.02760315 C192.663666 -0.04003746 199.4120655 -0.03109862 206.16079712 -0.00802612 C208.63307066 -0.0027503 211.10536955 -0.0042334 213.5776329 -0.01307678 C216.96063138 -0.02405968 220.34267809 -0.01023442 223.72561646 0.00964355 C224.6963542 0.00072067 225.66709194 -0.00820222 226.66724598 -0.0173955 C243.67916899 0.17557699 253.55661606 9.92584313 264.86669922 21.32226562 C265.91430128 22.37106321 266.96227706 23.41948764 268.01060486 24.46755981 C270.19630445 26.65481456 272.37863337 28.84535699 274.55834961 31.03857422 C277.33238219 33.82958424 280.11293981 36.61397832 282.89585209 39.39613152 C285.05732705 41.55788031 287.21617162 43.72224021 289.37417412 45.88745499 C290.39770614 46.91413689 291.42181646 47.94024264 292.44655037 48.96572495 C297.49845608 54.02536528 302.43220742 59.13041755 307.09059143 64.55770874 C310.54262752 68.44382487 314.28396957 72.04934389 317.98388672 75.69726562 C319.74769598 77.44842935 321.51136349 79.19973584 323.27490234 80.95117188 C326.02220731 83.67370867 328.77109593 86.39460615 331.52270508 89.11279297 C334.20178648 91.76143298 336.87441483 94.41645621 339.54638672 97.07226562 C340.35808823 97.87050751 341.16978973 98.66874939 342.00608826 99.49118042 C361.39884994 118.79968198 361.39884994 118.79968198 361.96034414 131.41033643 C361.96213271 132.54396936 361.96392128 133.67760229 361.96576405 134.84558773 C361.97022189 136.15529158 361.97467973 137.46499542 361.97927266 138.81438726 C361.97918337 140.27143539 361.97899352 141.72848351 361.97871399 143.18553162 C361.98201339 144.73064471 361.98573912 146.27575694 361.98985547 147.82086807 C361.99987521 152.07372576 362.00359223 156.32656932 362.00624478 160.57943714 C362.01014799 165.16384981 362.01972643 169.74825132 362.02845764 174.33265686 C362.04822324 185.40864118 362.05828913 196.48462642 362.06718543 207.56062397 C362.07156883 212.77752355 362.07693557 217.99442211 362.0821743 223.21132088 C362.09918792 240.55603926 362.11368126 257.900757 362.12092304 275.24548244 C362.12283292 279.74690692 362.12475325 284.2483314 362.12670898 288.74975586 C362.12719272 289.86855497 362.12767646 290.98735408 362.12817486 292.1400562 C362.13647201 310.25672486 362.16180302 328.37332741 362.19428966 346.48996722 C362.2273772 365.09355211 362.2453734 383.69710343 362.24856728 402.30071789 C362.25073098 412.74441409 362.25945901 423.18801394 362.28502846 433.63168144 C362.30675871 442.52780453 362.31477448 451.42380789 362.30506168 460.31995451 C362.30052351 464.85625834 362.30237495 469.39231525 362.32182312 473.92858505 C362.33950258 478.08838008 362.33841859 482.24774893 362.32292583 486.40754879 C362.32055696 487.90563698 362.32483558 489.40375506 362.33675448 490.9017977 C362.46296613 507.82472289 357.84438517 521.83629377 346.22216797 534.34570312 C333.59172931 545.82041537 320.39637041 547.99295372 303.88232422 547.81054688 C302.37347337 547.80493814 300.86461698 547.80067409 299.35575867 547.79768372 C295.42168578 547.7863353 291.48795545 547.75695698 287.55401611 547.72357178 C283.52482738 547.69265259 279.49558225 547.67913213 275.46630859 547.6640625 C267.58789776 547.63207543 259.70976321 547.58100352 251.83154297 547.51757812 C251.69055176 548.62673584 251.54956055 549.73589355 251.40429688 550.87866211 C250.59234899 556.03726538 248.23873038 558.70588445 244.83154297 562.51757812 C244.34943359 563.06671875 243.86732422 563.61585938 243.37060547 564.18164062 C235.27597606 572.19409106 223.33230051 574.07698562 212.44992065 574.19522095 C211.06524292 574.18550568 209.6805688 574.17526524 208.29589844 574.16455078 C206.79607083 574.17134669 205.29625158 574.18026076 203.79644775 574.19110107 C199.76746095 574.21366341 195.73912281 574.20515619 191.7101264 574.18920565 C187.46901717 574.17643025 183.22795864 574.1883183 178.98684692 574.19613647 C171.87068846 574.20519751 164.75479065 574.1933368 157.63867188 574.16943359 C149.43935696 574.14220806 141.24066357 574.15106094 133.0413636 574.17856562 C125.96828714 574.20133233 118.8953966 574.20442064 111.82229531 574.19137228 C107.61228074 574.1836218 103.40255737 574.18241396 99.1925621 574.19905472 C95.2342653 574.21361195 91.27676212 574.20327564 87.31855011 574.17458344 C85.8755156 574.168033 84.43241303 574.16976536 82.98940659 574.18089676 C70.88654148 574.26557602 60.47740304 572.00746984 51.52294922 563.40820312 C46.82239281 558.1540015 44.70545579 554.64210974 44.83154297 547.51757812 C43.57818901 547.53423271 43.57818901 547.53423271 42.29951477 547.55122375 C34.37165315 547.65198526 26.44401084 547.72782441 18.51565266 547.77663898 C14.44089953 547.80258016 10.36668157 547.83768872 6.29223633 547.89477539 C2.34994034 547.94965614 -1.59184548 547.9791146 -5.5344944 547.99196434 C-7.02822702 548.00110497 -8.52193611 548.01895049 -10.01544762 548.04622841 C-26.60582671 548.33680605 -39.14439241 543.18010216 -51.29345703 532.01757812 C-56.85539907 526.27398635 -60.22614669 519.88506077 -63.16845703 512.51757812 C-63.42805855 511.89152579 -63.68766008 511.26547346 -63.95512831 510.62044984 C-67.05803691 501.97770731 -66.58548176 493.06193968 -66.54940796 484.01506042 C-66.55286737 482.12653356 -66.55763383 480.23800872 -66.56358969 478.34948808 C-66.5760907 473.1752035 -66.5699333 468.00108533 -66.56063104 462.82680023 C-66.5538371 457.24043338 -66.56432359 451.65409495 -66.5725708 446.06773376 C-66.58590739 435.12921293 -66.58303047 424.19075386 -66.57433288 413.25223061 C-66.56755543 404.36003104 -66.56663989 395.46784877 -66.56990433 386.57564735 C-66.57036403 385.3096402 -66.57082373 384.04363305 -66.57129735 382.73926205 C-66.57225654 380.16728589 -66.57322918 377.59530974 -66.57421513 375.02333359 C-66.58252526 351.59475562 -66.57390889 328.16621724 -66.55818734 304.73764695 C-66.54395616 283.36764177 -66.54522052 261.99769025 -66.55957031 240.62768555 C-66.57564946 216.60215455 -66.58193998 192.57665706 -66.57273352 168.55111867 C-66.57177789 165.98773118 -66.57083478 163.42434369 -66.56990433 160.86095619 C-66.5694415 159.59977282 -66.56897867 158.33858946 -66.56850182 157.03918841 C-66.56591407 148.16150124 -66.57027842 139.28383313 -66.57734299 130.40614891 C-66.58576761 119.58147494 -66.58345777 108.7568662 -66.56750076 97.93219968 C-66.5596303 92.41163176 -66.55650553 86.89117252 -66.56644821 81.37060547 C-66.57542121 76.31180887 -66.57041935 71.25322117 -66.55451556 66.19444338 C-66.55117872 64.36949151 -66.55283697 62.54452181 -66.56014292 60.71958151 C-66.62658721 42.73567853 -64.28089715 27.20160564 -51.41845703 13.58398438 C-36.27822733 -0.32084464 -19.35289744 -0.06935007 0 0 Z M-35.04345703 35.39257812 C-35.87490234 36.34777344 -35.87490234 36.34777344 -36.72314453 37.32226562 C-40.04093229 42.36171622 -40.45966254 47.46338954 -40.42572594 53.34945297 C-40.42923201 54.12327847 -40.43273809 54.89710397 -40.43635041 55.69437873 C-40.445664 58.29076995 -40.44074119 60.88693685 -40.43588257 63.4833374 C-40.43961885 65.36229963 -40.44422028 67.24126031 -40.44961321 69.12021852 C-40.4618614 74.28649173 -40.4615806 79.45270027 -40.45922446 84.6189847 C-40.45881676 90.18968488 -40.46985105 95.7603642 -40.4793396 101.33105469 C-40.49596064 112.24637404 -40.50144965 123.16167179 -40.50256436 134.07700273 C-40.50351432 142.94882211 -40.50762205 151.82063436 -40.51396561 160.69245148 C-40.52871419 181.74739926 -40.54101501 202.80234268 -40.53996849 223.85729599 C-40.53993733 224.53063199 -40.53990618 225.20396799 -40.53987407 225.8977081 C-40.53970786 229.31042999 -40.53950978 232.72315188 -40.53930466 236.13587376 C-40.53926477 236.81364824 -40.53922488 237.49142272 -40.53918378 238.18973581 C-40.5391029 239.56036128 -40.53901931 240.93098675 -40.538933 242.30161222 C-40.53770762 263.62395365 -40.55271818 284.94623146 -40.58007812 306.26855469 C-40.61080707 330.22627314 -40.62798478 354.1839438 -40.62615168 378.14168763 C-40.62548743 390.82593058 -40.6309953 403.51010179 -40.65250778 416.19432831 C-40.6707064 426.99394018 -40.67507773 437.79344778 -40.66148894 448.59306833 C-40.65495263 454.10314692 -40.65486619 459.61302539 -40.67219543 465.12308502 C-40.68790164 470.16897805 -40.6850874 475.21451189 -40.66762717 480.26039603 C-40.66455189 482.08407189 -40.66820951 483.90777438 -40.67934732 485.73141882 C-40.74255199 496.81591358 -40.63927194 506.60309929 -33.04345703 515.39257812 C-24.62015006 522.93601694 -14.26357207 523.29255881 -3.48486328 523.54101562 C-2.74651686 523.55981403 -2.00817043 523.57861244 -1.24744987 523.5979805 C2.65548288 523.69248699 6.557904 523.7600984 10.46166992 523.80810547 C13.66860319 523.85261451 16.86710707 523.95020411 20.07104492 524.09521484 C36.83039185 525.54576318 36.83039185 525.54576318 52.2678833 520.88223267 C56.10359756 516.7724151 58.11372934 512.05186651 59.96511841 506.80236816 C61.228596 503.47053623 63.01639359 500.8362053 65.01904297 497.88867188 C65.64875 496.90640625 66.27845703 495.92414063 66.92724609 494.91210938 C67.86987305 493.44837891 67.86987305 493.44837891 68.83154297 491.95507812 C69.51667969 490.88773438 70.20181641 489.82039063 70.90771484 488.72070312 C74.70332404 482.81167022 78.51244314 476.91144926 82.33154297 471.01757812 C86.64525269 464.35807975 90.9535181 457.69506578 95.24389648 451.02050781 C96.30684896 449.36845777 97.37287107 447.71838404 98.43896484 446.06835938 C99.09445312 445.04742188 99.74994141 444.02648437 100.42529297 442.97460938 C101.00988281 442.06686768 101.59447266 441.15912598 102.19677734 440.22387695 C102.73625 439.33079834 103.27572266 438.43771973 103.83154297 437.51757812 C104.67036011 436.27439819 104.67036011 436.27439819 105.52612305 435.00610352 C107.58544276 429.50290184 107.19736933 424.06805832 107.12451172 418.24414062 C107.12026688 416.9652597 107.11602203 415.68637878 107.11164856 414.3687439 C107.09773267 410.98523111 107.07082621 407.60233585 107.03753662 404.21899414 C107.00672884 400.75998238 106.99312047 397.30090658 106.97802734 393.84179688 C106.94499051 387.06688785 106.89481448 380.29226861 106.83154297 373.51757812 C105.49349609 373.38802734 105.49349609 373.38802734 104.12841797 373.25585938 C102.37271484 373.04509766 102.37271484 373.04509766 100.58154297 372.83007812 C99.42138672 372.70246094 98.26123047 372.57484375 97.06591797 372.44335938 C93.12708896 371.31594093 92.0183801 369.90717568 89.83154297 366.51757812 C88.63979553 364.13408326 88.72078669 362.84834692 88.89404297 360.20507812 C88.92626953 359.44582031 88.95849609 358.6865625 88.99169922 357.90429688 C90.25712638 354.30812946 92.57562758 352.32006582 95.83154297 350.51757812 C99.24958037 349.80211015 102.58973213 349.84372409 106.07202148 349.88647461 C107.08899109 349.87931931 108.10596069 349.872164 109.15374756 349.86479187 C112.50644203 349.84791947 115.85779679 349.86729873 119.21044922 349.88867188 C121.54402273 349.88784311 123.87759619 349.88538346 126.21116638 349.88136292 C131.0977438 349.87850598 135.98386259 349.89319789 140.87036133 349.9206543 C147.13412049 349.95475511 153.39706061 349.94871122 159.66085911 349.92999172 C164.47786792 349.91942455 169.29468608 349.92835681 174.11167717 349.94337654 C176.42134981 349.94855957 178.73104234 349.9480751 181.04071236 349.94183159 C184.26773042 349.93638229 187.49357466 349.95674613 190.72045898 349.98413086 C191.67488388 349.97760498 192.62930878 349.9710791 193.61265564 349.96435547 C197.8782548 350.02591625 200.2004458 350.1210818 203.88145447 352.43373108 C206.69466214 355.43989951 207.672586 357.298908 208.20654297 361.39257812 C207.72695841 365.38911608 206.36414863 367.4221712 203.83154297 370.51757812 C200.78408333 372.4222404 198.13696343 372.86188704 194.58154297 373.14257812 C193.24349609 373.25472656 193.24349609 373.25472656 191.87841797 373.36914062 C191.20294922 373.418125 190.52748047 373.46710938 189.83154297 373.51757812 C189.62108587 380.95049426 189.46214298 388.38309415 189.36523342 395.81832981 C189.31866862 399.27279473 189.25575241 402.72519194 189.15258789 406.1784668 C188.45295727 428.54060927 188.45295727 428.54060927 198.83154297 447.51757812 C199.7622438 448.93756855 200.67436436 450.37020934 201.55419922 451.82226562 C202.3317611 453.01393009 203.11171449 454.2040375 203.89404297 455.39257812 C204.8243682 456.8192458 205.75401047 458.24635897 206.68310547 459.67382812 C207.18100586 460.43824219 207.67890625 461.20265625 208.19189453 461.99023438 C211.40567237 466.94393124 214.58641666 471.91883253 217.76904297 476.89257812 C218.45305176 477.96145264 219.13706055 479.03032715 219.84179688 480.1315918 C224.44936913 487.33893983 229.035072 494.55971591 233.5871582 501.80224609 C234.44726375 503.16919667 235.32182646 504.52716968 236.21141052 505.87512207 C237.83154297 508.51757813 237.83154297 508.51757813 239.53067017 511.97940063 C243.38050115 519.45997248 243.38050115 519.45997248 250.27314758 523.78517151 C254.47218201 524.22295987 258.46275432 524.23053377 262.67138672 524.06054688 C264.20394656 524.0470916 265.73656379 524.03916057 267.2691803 524.03645325 C270.47130239 524.01655797 273.66788577 523.95101984 276.8684082 523.84838867 C280.94514877 523.71836321 285.01731634 523.67073575 289.09593868 523.65360546 C292.25790346 523.63659842 295.41895608 523.59172388 298.58047676 523.53710365 C300.08211559 523.51136238 301.58384225 523.49026419 303.08561516 523.47414207 C312.71795099 523.33669769 321.3939525 522.61979136 328.73204041 515.73429871 C335.04151319 508.94364007 336.27317921 502.70953056 336.23027039 493.69345093 C336.23691721 492.60011369 336.24356404 491.50677646 336.25041229 490.38030779 C336.26907844 486.71161472 336.26643385 483.04324691 336.26391602 479.37451172 C336.27293533 476.74146653 336.28313469 474.10845037 336.2947998 471.47541809 C336.31762746 465.78714775 336.32948072 460.0989387 336.33392906 454.41062546 C336.34044222 446.09490726 336.36349269 437.77929659 336.39027236 429.46362193 C336.43364714 415.85011229 336.4635169 402.23660717 336.48510742 388.62304688 C336.50577357 375.60902447 336.53285902 362.59504345 336.5690918 349.58105469 C336.57238943 348.39461588 336.57238943 348.39461588 336.57575367 347.1842086 C336.58463278 343.99858688 336.59356071 340.81296529 336.60255115 337.62734388 C336.78881504 271.59090309 336.89435759 205.55429174 336.83154297 139.51757812 C335.21634545 139.5047591 335.21634545 139.5047591 333.56851768 139.4916811 C332.85090193 139.4859839 332.13328617 139.4802867 331.39392447 139.47441685 C329.77233891 139.46155089 328.15075321 139.44870016 326.52916741 139.43586338 C322.03822751 139.40028902 317.54729008 139.36443942 313.05635643 139.32808399 C304.60477886 139.25991979 296.15326208 139.19501141 287.7015419 139.14690971 C284.36042505 139.12493012 281.01952392 139.09091961 277.67855835 139.05256653 C276.04570808 139.03653758 274.41279569 139.02616823 272.77987671 139.02046204 C255.13946955 138.95071917 255.13946955 138.95071917 246.83154297 135.51757812 C245.77454697 135.09873604 245.77454697 135.09873604 244.69619751 134.6714325 C233.83997663 130.13685792 226.54880138 120.75701311 221.83935547 110.31835938 C219.31941726 104.01851386 218.71007059 98.05079568 218.6262207 91.31884766 C218.61632111 90.62546799 218.60642151 89.93208832 218.59622192 89.21769714 C218.56484971 86.94529535 218.5399465 84.67287272 218.51513672 82.40039062 C218.49454617 80.81712324 218.47354917 79.23386109 218.4521637 77.65060425 C218.39715988 73.49800884 218.34765562 69.34536561 218.29931641 65.19268799 C218.24894229 60.94937928 218.19333954 56.70613939 218.13818359 52.46289062 C218.0308676 44.14784477 217.92936448 35.83274107 217.83154297 27.51757812 C187.26576565 27.42629802 156.70001955 27.35552411 126.13413846 27.31331681 C122.52432125 27.30831407 118.91450431 27.30313677 115.3046875 27.29785156 C114.58604782 27.29680232 113.86740815 27.29575308 113.12699151 27.29467204 C101.49583962 27.27727397 89.86476694 27.2457396 78.23366201 27.20896694 C66.29617732 27.17154083 54.35873407 27.14933875 42.42119312 27.14122415 C35.71724683 27.13623153 29.0134912 27.12374127 22.30960083 27.0946579 C15.99938444 27.06750424 9.68942156 27.0591332 3.3791523 27.0651474 C1.0636412 27.06404716 -1.25187838 27.05609326 -3.56733894 27.04075623 C-6.73091303 27.02082973 -9.89353233 27.02564933 -13.05712891 27.03656006 C-13.97154471 27.02490869 -14.88596052 27.01325733 -15.8280859 27.00125289 C-23.59103675 27.07352751 -29.93839074 29.31046565 -35.04345703 35.39257812 Z " fill="#1B1B1A" transform="translate(479.16845703125,187.482421875)"/>
<path d="M0 0 C0.86896408 -0.00571014 1.73792816 -0.01142029 2.63322449 -0.01730347 C3.59417526 -0.01842133 4.55512604 -0.01953918 5.54519653 -0.02069092 C6.55179825 -0.02565582 7.55839996 -0.03062073 8.59550476 -0.03573608 C11.94609245 -0.05041119 15.29663268 -0.05717146 18.64724731 -0.06268311 C20.97359214 -0.06843377 23.29993695 -0.07419152 25.62628174 -0.07995605 C30.5173871 -0.09048369 35.40847596 -0.09631362 40.29959106 -0.09979248 C46.54816597 -0.10525602 52.79652063 -0.1292307 59.04502678 -0.15776443 C63.85793679 -0.17645674 68.67079471 -0.1816001 73.48373795 -0.18312836 C75.78567829 -0.18614468 78.08761794 -0.19413851 80.38952255 -0.20731354 C83.62517333 -0.22449823 86.86029903 -0.22246253 90.09597778 -0.21600342 C91.03668625 -0.2252182 91.97739471 -0.23443298 92.9466095 -0.243927 C101.53757692 -0.1905984 110.76453477 1.18250952 117.72927856 6.60137939 C120.07255461 9.51384237 119.90581135 12.49728235 119.96755981 16.14044189 C120.85959106 16.37118408 121.75162231 16.60192627 122.67068481 16.83966064 C123.84115356 17.16579346 125.01162231 17.49192627 126.21755981 17.82794189 C127.37771606 18.14118408 128.53787231 18.45442627 129.73318481 18.77716064 C133.46527923 20.35022943 134.75315213 21.79905887 136.96755981 25.14044189 C137.45740356 25.86360596 137.94724731 26.58677002 138.45193481 27.33184814 C143.67335152 37.11394673 143.70914603 49.19623582 141.04568481 59.81622314 C135.67885306 73.52952378 126.59066503 81.05130385 113.85818481 87.62481689 C104.42798237 91.66690567 94.11055639 91.43318872 84.03709602 91.44540215 C81.57759819 91.44911123 79.11848747 91.4659533 76.65907288 91.48616028 C69.67563041 91.54118472 62.6921367 91.57238078 55.70852661 91.59674072 C51.41633781 91.61260505 47.12443583 91.6427902 42.83239555 91.6815052 C41.20294672 91.69314214 39.57344676 91.69908544 37.94395638 91.69918633 C35.67295295 91.6993782 33.40274617 91.71762363 31.13186646 91.73980713 C29.84156021 91.74487778 28.55125397 91.74994843 27.22184753 91.75517273 C23.69278107 92.17297245 22.2322515 92.39827479 19.96755981 95.14044189 C19.34548769 98.42707489 19.34548769 98.42707489 19.42166138 102.27398682 C19.4113237 102.99618912 19.40098602 103.71839142 19.39033508 104.46247864 C19.36084461 106.84884855 19.35940668 109.23437263 19.35818481 111.62091064 C19.34320728 113.27573775 19.32648103 114.93054988 19.30807495 116.58534241 C19.26434084 120.94024329 19.24438909 125.29494252 19.2293396 129.65002441 C19.20979021 134.09421747 19.16781786 138.53819205 19.12771606 142.98223877 C19.05234839 151.70158274 19.00209685 160.42084107 18.96755981 169.14044189 C31.0243221 169.07927071 43.08086721 169.00219327 55.13739395 168.90472698 C60.73555313 168.85997242 66.33363868 168.82072746 71.93191528 168.79400635 C77.33313732 168.76802421 82.73407676 168.7276578 88.13512421 168.67725563 C90.19718668 168.66055246 92.25929806 168.64905973 94.32141876 168.64282799 C97.20669786 168.63322446 100.09124831 168.60521004 102.97634888 168.57281494 C103.83158646 168.57425003 104.68682404 168.57568512 105.56797791 168.5771637 C109.05197662 168.52172961 111.36062446 168.46571499 114.4670105 166.80091858 C117.80912286 163.10260651 117.13572847 158.42394082 117.17849731 153.73809814 C117.20660089 152.02519854 117.23526551 150.31230806 117.26443481 148.59942627 C117.30539821 145.91412967 117.34230149 143.22899705 117.368927 140.54351807 C117.60776509 118.35010667 122.44390283 101.54433691 137.94802856 85.03106689 C142.30574313 80.81234135 147.05224008 77.72280913 152.34255981 74.82794189 C153.22439941 74.33946777 153.22439941 74.33946777 154.12405396 73.84112549 C166.08484314 67.61717809 177.93293886 67.73502528 191.07302856 67.84747314 C193.00786508 67.85307797 194.9427059 67.85734387 196.87754822 67.8603363 C201.93607625 67.87171532 206.99434021 67.90112173 212.05276489 67.93444824 C217.22810292 67.96529989 222.40348419 67.97887371 227.57888794 67.99395752 C237.7085791 68.02599896 247.83800604 68.07870914 257.96755981 68.14044189 C257.96755981 76.39044189 257.96755981 84.64044189 257.96755981 93.14044189 C255.57143433 93.15502441 253.17530884 93.16960693 250.70657349 93.18463135 C242.75566454 93.23515525 234.80494779 93.30178093 226.85422802 93.37615681 C222.03761177 93.42072674 217.22107751 93.46001176 212.40432739 93.48687744 C207.74869698 93.51304461 203.09338435 93.55354016 198.43795204 93.60362816 C196.66916189 93.6202067 194.90031689 93.63177672 193.13146019 93.6380558 C178.69581916 93.69444423 165.49040411 94.62000226 154.18630981 104.73419189 C148.25379471 111.15099394 143.86722124 119.6362887 143.82571411 128.45904541 C143.81867966 129.30415176 143.8116452 130.14925812 143.80439758 131.01997375 C143.79815117 132.38091408 143.79815117 132.38091408 143.79177856 133.76934814 C143.76856445 135.71141609 143.74444649 137.65347339 143.71951294 139.59552002 C143.68455331 142.6409196 143.65513523 145.68593146 143.64163208 148.73150635 C143.49985921 175.50476692 143.49985921 175.50476692 133.10427856 186.26544189 C124.49155599 193.82322404 113.55627479 194.43971267 102.57620239 194.44683838 C101.47261887 194.4551619 100.36903534 194.46348541 99.23200989 194.47206116 C95.60866711 194.49602594 91.98550451 194.50491388 88.36209106 194.51153564 C85.83341927 194.52050757 83.30474801 194.52962952 80.77607727 194.53889465 C75.48809064 194.55534703 70.20014778 194.56311151 64.91213989 194.565979 C58.80942971 194.56962257 52.7072198 194.59959672 46.60466272 194.64138359 C40.71481193 194.680291 34.82511149 194.69157195 28.93512535 194.69270515 C26.43645181 194.69691143 23.937778 194.70936186 21.439188 194.7302227 C17.94925644 194.75705828 14.46071546 194.75233529 10.97073364 194.73980713 C9.94046051 194.75464142 8.91018738 194.76947571 7.84869385 194.78475952 C3.55974411 194.74088552 -0.04413347 194.66112606 -3.67359924 192.20227051 C-6.95476489 187.94324368 -6.86603664 184.7975634 -6.77706909 179.55181885 C-6.78437042 178.59179459 -6.79167175 177.63177032 -6.79919434 176.64265442 C-6.81539787 173.47062252 -6.78818712 170.30063772 -6.75900269 167.12872314 C-6.75796493 164.91780092 -6.75900249 162.70687683 -6.76202393 160.49595642 C-6.76184449 155.85967486 -6.74099697 151.22408885 -6.70480347 146.58795166 C-6.6595606 140.66428133 -6.6583166 134.74163301 -6.67183876 128.81783772 C-6.67854645 124.24937468 -6.66520346 119.68114168 -6.64558029 115.1127224 C-6.63791436 112.92999669 -6.63556398 110.74724528 -6.63875198 108.56450844 C-6.63949965 105.50119648 -6.61407621 102.43915701 -6.58175659 99.3760376 C-6.58671143 98.48477173 -6.59166626 97.59350586 -6.59677124 96.67523193 C-6.45201402 88.01269058 -3.76753825 80.10028623 2.18630981 73.67559814 C8.78557324 67.98807506 15.43078659 65.99273433 23.98391724 65.99859619 C24.80055847 65.99512177 25.61719971 65.99164734 26.45858765 65.98806763 C28.23301195 65.98071436 30.00744543 65.97536669 31.78188133 65.97177696 C34.59460761 65.96460563 37.40716002 65.94893282 40.21983337 65.93043518 C48.21750466 65.87800566 56.21508179 65.83001823 64.21292114 65.81451416 C69.10544596 65.80440812 73.99753467 65.77501497 78.88988686 65.73319435 C80.75047818 65.72091447 82.6111312 65.71575757 84.4717617 65.71799278 C87.08305406 65.72035726 89.69310564 65.69809253 92.30422974 65.67047119 C93.06556717 65.6770726 93.8269046 65.68367401 94.61131287 65.69047546 C100.68598162 65.58555715 105.91506788 63.88266061 110.49963665 59.76409435 C115.02319447 54.71597155 116.20060939 50.25540775 115.84255981 43.64044189 C115.24563325 38.79943307 114.46789568 35.72615181 110.96755981 32.14044189 C105.55113549 28.88170791 100.1014722 26.03683335 93.69651794 25.98222351 C92.82573608 25.97243469 91.95495422 25.96264587 91.05778503 25.95256042 C90.10544479 25.94680496 89.15310455 25.9410495 88.17190552 25.93511963 C86.66432175 25.92027023 86.66432175 25.92027023 85.12628174 25.90512085 C81.79865895 25.87349111 78.47102187 25.84874251 75.14334106 25.82403564 C72.83833949 25.8034674 70.5333417 25.78247096 68.22834778 25.76106262 C62.15715597 25.70582863 56.08593006 25.65642516 50.01467896 25.60821533 C43.82120726 25.55801003 37.6277852 25.50231889 31.43435669 25.44708252 C19.27880011 25.3394847 7.12320047 25.23804329 -5.03244019 25.14044189 C-5.06131002 21.1612903 -5.07919425 17.18216536 -5.09494019 13.20294189 C-5.10331909 12.0666333 -5.111698 10.93032471 -5.12033081 9.75958252 C-5.12355347 8.67999268 -5.12677612 7.60040283 -5.13009644 6.48809814 C-5.13533325 5.48786621 -5.14057007 4.48763428 -5.14596558 3.45709229 C-4.95493703 -0.44112251 -3.48469272 0.01365541 0 0 Z " fill="#1A1A1A" transform="translate(503.0324401855469,311.85955810546875)"/>
<path d="M0 0 C14.025 -0.0825 28.05 -0.165 42.5 -0.25 C46.89634766 -0.28641602 51.29269531 -0.32283203 55.82226562 -0.36035156 C61.27246094 -0.37841797 61.27246094 -0.37841797 63.83972168 -0.3817749 C65.59822666 -0.38783871 67.3567171 -0.4017397 69.1151123 -0.42230225 C89.49644753 -0.64831687 107.41811674 2.73480685 123.390625 16.4453125 C137.03237365 29.80115624 142.94649353 46.85794152 143.4375 65.75 C142.74429313 83.95823384 136.63184841 103.66381108 123 116.3828125 C105.84088169 130.25756832 88.16064981 133.47817285 66.796875 133.29296875 C65.08154595 133.2885478 63.36621283 133.2854935 61.65087891 133.28381348 C55.35052348 133.26820183 49.05025518 133.22631837 42.75 133.1875 C21.58875 133.0946875 21.58875 133.0946875 0 133 C0 89.11 0 45.22 0 0 Z " fill="#1A1A1A" transform="translate(367,816)"/>
<path d="M0 0 C11.55 0 23.1 0 35 0 C35.01417969 4.33640625 35.02835938 8.6728125 35.04296875 13.140625 C35.06826844 16.62986557 35.0985046 20.1189869 35.13204193 23.6081543 C35.1659398 27.27400798 35.19143265 30.9394504 35.19555664 34.60546875 C35.19988077 38.14611158 35.22867641 41.68583443 35.27343178 45.22618866 C35.29246676 47.21322324 35.28708965 49.20044446 35.28105164 51.18756104 C35.46231349 62.6334966 38.88753749 71.58926458 45.4375 80.875 C46.32009425 82.15330387 47.20014737 83.43336466 48.078125 84.71484375 C48.54798828 85.39788574 49.01785156 86.08092773 49.50195312 86.78466797 C52.31645428 90.94679043 54.99701457 95.19458045 57.6875 99.4375 C58.27789063 100.36755859 58.86828125 101.29761719 59.4765625 102.25585938 C65.71569718 112.10324899 71.88903409 121.99169019 78.05615234 131.88427734 C80.09342438 135.14974654 82.13413994 138.41304219 84.17578125 141.67578125 C84.85777588 142.76584473 85.53977051 143.8559082 86.24243164 144.97900391 C87.54995264 147.06868418 88.85772009 149.15821028 90.16577148 151.24755859 C90.75559814 152.19066895 91.3454248 153.1337793 91.953125 154.10546875 C92.72897949 155.34526489 92.72897949 155.34526489 93.52050781 156.61010742 C94.00874023 157.39877197 94.49697266 158.18743652 95 159 C95.54881836 159.86407471 96.09763672 160.72814941 96.66308594 161.6184082 C98.39499582 164.70364943 98.50910929 166.5089649 98 170 C95.78030401 173.4880937 93.82918413 175.4942535 90 177 C87.29407787 177.25168228 87.29407787 177.25168228 84.13725281 177.25396729 C82.33934296 177.26242676 82.33934296 177.26242676 80.50511169 177.27105713 C78.53744591 177.26498444 78.53744591 177.26498444 76.5300293 177.25878906 C75.13194598 177.26149974 73.73386409 177.26506111 72.33578491 177.26940918 C68.54018267 177.27852887 64.74468914 177.27499 60.949085 177.26865101 C56.97385094 177.26358584 52.99862615 177.26828418 49.02339172 177.27142334 C42.34443493 177.27506275 35.66552235 177.27026589 28.98657227 177.26074219 C21.2737824 177.24987104 13.5610984 177.25337355 5.84831113 177.264395 C-0.77858487 177.27348456 -7.40544907 177.27474459 -14.03234929 177.26951766 C-17.98796171 177.26640541 -21.94352448 177.26596783 -25.89913368 177.27259064 C-29.621477 177.27838728 -33.34368461 177.27432494 -37.06601334 177.26280212 C-39.07684902 177.25891472 -41.08769623 177.26482236 -43.098526 177.27105713 C-57.37171268 177.20437001 -57.37171268 177.20437001 -61.9375 173.375 C-63.49121893 169.90198122 -63.57742956 166.70222277 -63 163 C-61.66425653 159.92135934 -59.83773369 157.25748198 -57.9375 154.5 C-56.83071633 152.82378415 -55.72531333 151.14665607 -54.62109375 149.46875 C-54.03183105 148.58445312 -53.44256836 147.70015625 -52.83544922 146.7890625 C-49.62999062 141.91819804 -46.57464992 136.95404154 -43.5 132 C-42.22083542 129.95003183 -40.94089468 127.90054776 -39.66015625 125.8515625 C-39.04156738 124.86188477 -38.42297852 123.87220703 -37.78564453 122.85253906 C-35.17852626 118.68770861 -32.56111201 114.52945675 -29.9375 110.375 C-29.4628833 109.623396 -28.9882666 108.87179199 -28.49926758 108.09741211 C-25.80837479 103.84237287 -23.10425089 99.59604762 -20.390625 95.35546875 C-6.72498749 76.45650566 -6.72498749 76.45650566 -0.68115234 54.71923828 C-0.66128265 53.4984256 -0.64141296 52.27761292 -0.62094116 51.01980591 C-0.60938995 49.71647308 -0.59783875 48.41314026 -0.5859375 47.0703125 C-0.5672085 45.71124112 -0.54763381 44.35218115 -0.5272522 42.99313354 C-0.47610759 39.43240108 -0.43638796 35.871631 -0.39910889 32.31072998 C-0.3589578 28.67060205 -0.30802084 25.03062581 -0.2578125 21.390625 C-0.16025059 14.26047545 -0.08059393 7.13044229 0 0 Z " fill="#FAFAFA" transform="translate(610,561)"/>
<path d="M0 0 C0.82461227 -0.00817749 1.64922455 -0.01635498 2.49882507 -0.02478027 C5.24579134 -0.0497152 7.9927051 -0.06618384 10.73974609 -0.08056641 C11.67993969 -0.08589008 12.62013329 -0.09121376 13.5888176 -0.09669876 C18.57922298 -0.12348389 23.56960305 -0.14282889 28.56005859 -0.15722656 C33.68295757 -0.17375562 38.80519819 -0.21841733 43.92785072 -0.26959801 C47.8899496 -0.30351827 51.85189828 -0.31483174 55.81412888 -0.32045364 C57.69972044 -0.32711371 59.58530402 -0.34219643 61.47075272 -0.36634445 C77.78774443 -0.56315125 92.54392411 1.41686742 105.06005859 12.96630859 C114.94336405 23.31421388 116.55027119 35.09643695 116.34912109 48.73193359 C115.95394789 60.42613319 110.4875763 69.62211941 102.13037109 77.62646484 C98.48417008 80.49337976 94.38149731 82.37138434 90.13818359 84.19287109 C89.35701172 84.54736328 88.57583984 84.90185547 87.77099609 85.26708984 C80.36971618 87.86961705 72.50572017 87.32293274 64.76708984 87.29052734 C63.48962387 87.2891124 62.2121579 87.28769745 60.89598083 87.28623962 C57.52093613 87.28160625 54.14596063 87.27264132 50.77093506 87.26153564 C47.31848759 87.25125535 43.86603273 87.24667288 40.41357422 87.24169922 C33.65507206 87.23154827 26.89669005 87.21196891 20.13818359 87.19287109 C20.13818359 102.37287109 20.13818359 117.55287109 20.13818359 133.19287109 C15.53880859 133.21349609 10.93943359 133.23412109 6.20068359 133.25537109 C4.74799072 133.2644751 3.29529785 133.2735791 1.79858398 133.28295898 C0.66412842 133.28545654 -0.47032715 133.2879541 -1.63916016 133.29052734 C-2.80697021 133.29576416 -3.97478027 133.30100098 -5.17797852 133.30639648 C-7.86181641 133.19287109 -7.86181641 133.19287109 -8.86181641 132.19287109 C-8.96018682 130.49960052 -8.98813656 128.80220454 -8.98880005 127.1060791 C-8.99161987 126.00389542 -8.9944397 124.90171173 -8.99734497 123.76612854 C-8.99430862 121.9364579 -8.99430862 121.9364579 -8.99121094 120.06982422 C-8.99296326 118.79356674 -8.99471558 117.51730927 -8.996521 116.20237732 C-9.0010949 112.69214118 -8.99930595 109.1819343 -8.99614191 105.67169762 C-8.99361808 102.00594374 -8.99595591 98.34019245 -8.99752808 94.67443848 C-8.99934971 88.51732939 -8.99694364 82.36023227 -8.9921875 76.203125 C-8.98674489 69.07481505 -8.98850755 61.94653369 -8.99401391 54.81822443 C-8.99854522 48.70868258 -8.99919549 42.59914937 -8.99657524 36.48960638 C-8.99501256 32.83596674 -8.99481842 29.18234057 -8.99811172 25.52870178 C-9.00152456 21.45775649 -8.9968004 17.38686084 -8.99121094 13.31591797 C-8.99323517 12.09613754 -8.9952594 10.87635712 -8.99734497 9.61961365 C-8.99452515 8.51742996 -8.99170532 7.41524628 -8.98880005 6.27966309 C-8.98842302 5.31584465 -8.988046 4.35202621 -8.98765755 3.35900116 C-8.70279405 -1.54441426 -3.83828319 0.02079331 0 0 Z " fill="#1B1B1B" transform="translate(225.86181640625,815.80712890625)"/>
<path d="M0 0 C1.07507813 -0.00128906 2.15015625 -0.00257813 3.2578125 -0.00390625 C4.38960937 -0.00003906 5.52140625 0.00382813 6.6875 0.0078125 C7.81929687 0.00394531 8.95109375 0.00007812 10.1171875 -0.00390625 C11.19226563 -0.00261719 12.26734375 -0.00132812 13.375 0 C14.86580078 0.00169189 14.86580078 0.00169189 16.38671875 0.00341797 C18.6875 0.1328125 18.6875 0.1328125 19.6875 1.1328125 C19.81022849 2.72795143 19.86531043 4.32836182 19.89282227 5.92797852 C19.91276749 6.94896133 19.93271271 7.96994415 19.95326233 9.02186584 C19.96997482 10.1322673 19.98668732 11.24266876 20.00390625 12.38671875 C20.02468735 13.51730209 20.04546844 14.64788544 20.06687927 15.81272888 C20.13249797 19.44019235 20.19131677 23.06773083 20.25 26.6953125 C20.29317351 29.14779436 20.3367874 31.6002685 20.38085938 34.05273438 C20.48819184 40.07934677 20.5899349 46.10603451 20.6875 52.1328125 C21.58480835 51.41508667 21.58480835 51.41508667 22.50024414 50.68286133 C23.29551514 50.05404053 24.09078613 49.42521973 24.91015625 48.77734375 C25.69398682 48.15448486 26.47781738 47.53162598 27.28540039 46.88989258 C37.84783649 39.16371587 50.99284623 38.09226711 63.6875 39.1328125 C76.46979421 41.64362029 87.59714453 47.82510035 95.6875 58.1328125 C104.43176128 72.55083111 107.27502282 87.96879169 103.5 104.5703125 C99.88269133 116.78914776 93.07808042 127.75771322 81.7265625 134.1796875 C78.14914675 135.8518895 74.46548885 137.00980207 70.6875 138.1328125 C69.77355469 138.4834375 68.85960937 138.8340625 67.91796875 139.1953125 C64.11145496 140.29998398 60.5540982 140.47609222 56.625 140.4453125 C55.88056641 140.44039795 55.13613281 140.4354834 54.36914062 140.43041992 C40.73099471 140.14556148 29.82144318 136.22737689 19.6875 127.1328125 C19.59662109 128.19822266 19.59662109 128.19822266 19.50390625 129.28515625 C19.42011719 130.20425781 19.33632813 131.12335938 19.25 132.0703125 C19.16878906 132.98683594 19.08757813 133.90335938 19.00390625 134.84765625 C18.6875 137.1328125 18.6875 137.1328125 17.6875 138.1328125 C15.90678754 138.22007473 14.1226686 138.23980291 12.33984375 138.23046875 C11.26025391 138.22724609 10.18066406 138.22402344 9.06835938 138.22070312 C7.93205078 138.21232422 6.79574219 138.20394531 5.625 138.1953125 C4.48482422 138.19080078 3.34464844 138.18628906 2.16992188 138.18164062 C-0.65760351 138.16980997 -3.4850264 138.1533266 -6.3125 138.1328125 C-6.33582826 120.287504 -6.35347882 102.44219944 -6.36431217 84.59687901 C-6.36947528 76.31156976 -6.37651827 68.02626997 -6.38793945 59.7409668 C-6.39788583 52.52211642 -6.40435332 45.30327289 -6.40658849 38.08441585 C-6.40789568 34.25972995 -6.41098203 30.43506363 -6.41823006 26.61038399 C-6.42498954 23.01455463 -6.42711711 19.41875304 -6.42560768 15.82291794 C-6.42601636 13.86575213 -6.43141193 11.90858938 -6.43692017 9.95143127 C-6.4355455 8.7973175 -6.43417084 7.64320374 -6.43275452 6.45411682 C-6.43367631 5.4447535 -6.4345981 4.43539019 -6.43554783 3.3954401 C-6.200474 -0.9271435 -3.76187959 0.00426932 0 0 Z " fill="#1B1B1B" transform="translate(931.3125,810.8671875)"/>
<path d="M0 0 C38.94 0 77.88 0 118 0 C118 7.59 118 15.18 118 23 C116.20011601 24.79988399 113.75000124 24.11993004 111.35444641 24.12442017 C110.54452744 24.12082489 109.73460846 24.11722961 108.90014648 24.11352539 C108.05143982 24.11367142 107.20273315 24.11381744 106.32830811 24.1139679 C103.50921109 24.11326848 100.69017929 24.10547478 97.87109375 24.09765625 C95.92196183 24.09579217 93.97282945 24.09436822 92.0236969 24.09336853 C86.88293168 24.08954255 81.74219453 24.07971159 76.60144043 24.06866455 C71.35994852 24.05845215 66.1184521 24.05387128 60.87695312 24.04882812 C50.58462108 24.03808939 40.29231726 24.02049195 30 24 C30 34.89 30 45.78 30 57 C35.11371094 56.98839844 40.22742188 56.97679687 45.49609375 56.96484375 C48.7272148 56.95973689 51.95833091 56.95492311 55.18945312 56.95117188 C60.3230085 56.94518384 65.45654612 56.93808462 70.59008789 56.92456055 C74.726794 56.91373025 78.86348108 56.90772286 83.00020027 56.90512276 C84.58192304 56.90326876 86.16364471 56.89964864 87.74535942 56.89426994 C89.95322838 56.8870576 92.16101773 56.88600914 94.36889648 56.88647461 C95.62798325 56.884254 96.88707001 56.88203339 98.18431091 56.87974548 C101 57 101 57 102 58 C102 65.59 102 73.18 102 81 C77.91 81 53.82 81 29 81 C29 98.16 29 115.32 29 133 C19.43 133 9.86 133 0 133 C0 89.11 0 45.22 0 0 Z " fill="#181818" transform="translate(537,816)"/>
<path d="M0 0 C6.87097013 5.67919124 10.87029325 13.09488721 12.25 21.875 C12.52178005 27.09479168 12.48336363 32.30678419 12.4453125 37.53125 C12.4415766 39.04439099 12.43873235 40.55753442 12.43673706 42.07067871 C12.42914601 46.0293663 12.40953712 49.98790424 12.3873291 53.9465332 C12.36677244 57.99558489 12.35771446 62.04466104 12.34765625 66.09375 C12.32628635 74.02090924 12.29114183 81.94791869 12.25 89.875 C4.33 89.875 -3.59 89.875 -11.75 89.875 C-11.75 86.575 -11.75 83.275 -11.75 79.875 C-12.73226562 80.67164063 -12.73226562 80.67164063 -13.734375 81.484375 C-23.79538055 89.27170698 -32.31744968 92.18248016 -44.9375 92.3125 C-45.76886475 92.3228125 -46.60022949 92.333125 -47.45678711 92.34375 C-56.39228104 92.21611275 -66.60685551 89.4242479 -73.44140625 83.37890625 C-80.31191184 75.92294404 -82.52847967 68.40295589 -82.19140625 58.3125 C-81.15432833 50.23614095 -77.29136145 44.37198146 -70.98046875 39.33984375 C-67.13476004 36.81420318 -63.16487346 35.13724702 -58.75 33.875 C-58.12528809 33.69549805 -57.50057617 33.51599609 -56.85693359 33.33105469 C-48.07452442 31.18234875 -39.09925409 31.65671985 -30.125 31.75 C-28.43620323 31.76005043 -26.74740066 31.76917263 -25.05859375 31.77734375 C-20.95558406 31.79919261 -16.85285718 31.83360846 -12.75 31.875 C-13.04482101 30.26712487 -13.34702214 28.66060175 -13.65234375 27.0546875 C-13.90359009 25.71253174 -13.90359009 25.71253174 -14.15991211 24.34326172 C-14.98699568 20.88367756 -16.06249334 19.21795452 -18.75 16.875 C-25.2932261 13.05899475 -31.20446279 12.20085075 -38.6875 12.3125 C-39.68297852 12.31765625 -40.67845703 12.3228125 -41.70410156 12.328125 C-50.02126199 12.53001072 -57.46042944 14.18029003 -65.328125 16.78125 C-68.75 17.875 -68.75 17.875 -71.75 17.875 C-71.75 11.275 -71.75 4.675 -71.75 -2.125 C-50.02933865 -11.1235597 -20.09945958 -14.21342816 0 0 Z " fill="#1C1C1C" transform="translate(884.75,859.125)"/>
<path d="M0 0 C12.313125 -0.0928125 12.313125 -0.0928125 24.875 -0.1875 C28.73227783 -0.22846802 28.73227783 -0.22846802 32.66748047 -0.27026367 C34.73404472 -0.2790357 36.80061421 -0.28667794 38.8671875 -0.29296875 C39.91720947 -0.30831665 40.96723145 -0.32366455 42.04907227 -0.33947754 C53.7534871 -0.34358051 64.29969268 2.81214448 73.04296875 10.88671875 C82.40437071 21.04653453 84.78328379 32.51944318 84.43359375 45.9921875 C83.75008331 57.07740668 79.35946732 67.06867861 71.49609375 74.9453125 C61.47132603 83.19731222 51.77895093 85.31650484 39.16015625 85.1953125 C38.16463745 85.19329834 37.16911865 85.19128418 36.14343262 85.18920898 C32.44974107 85.17880065 28.75611556 85.15087832 25.0625 85.125 C16.791875 85.08375 8.52125 85.0425 0 85 C0 56.95 0 28.9 0 0 Z " fill="#FBFBFC" transform="translate(396,840)"/>
<path d="M0 0 C8.91 0 17.82 0 27 0 C27 35.97 27 71.94 27 109 C51.6375841 108.9603851 51.6375841 108.9603851 76.27514648 108.90991211 C81.03137207 108.90539551 81.03137207 108.90539551 83.25526428 108.90455627 C84.8143899 108.90301684 86.3735143 108.89949193 87.93263245 108.89442444 C90.28901246 108.88714601 92.64531948 108.88609261 95.00170898 108.88647461 C95.70073806 108.8828765 96.39976713 108.87927839 97.1199789 108.87557125 C101.88597366 108.88597366 101.88597366 108.88597366 103 110 C103.08713831 111.70772358 103.10700007 113.41898649 103.09765625 115.12890625 C103.09282227 116.68061523 103.09282227 116.68061523 103.08789062 118.26367188 C103.07532227 119.8965918 103.07532227 119.8965918 103.0625 121.5625 C103.05798828 122.65498047 103.05347656 123.74746094 103.04882812 124.87304688 C103.03699826 127.58208495 103.02051543 130.29101599 103 133 C89.71812591 133.02312079 76.43625657 133.04091374 63.15436649 133.05181217 C56.9877508 133.05704158 50.82114882 133.06414027 44.65454102 133.07543945 C38.70883994 133.08626629 32.76315211 133.0922764 26.81744194 133.09487724 C24.54353057 133.09673186 22.26961996 133.10035317 19.99571419 133.10573006 C16.8227288 133.11293778 13.64979883 133.11399106 10.47680664 133.11352539 C9.52662659 133.11712067 8.57644653 133.12071594 7.59747314 133.12442017 C1.11405216 133.11405216 1.11405216 133.11405216 0 132 C-0.09622036 130.29174312 -0.12187628 128.57947886 -0.12025452 126.86851501 C-0.12162918 125.75647202 -0.12300385 124.64442902 -0.12442017 123.49868774 C-0.12082489 122.26798553 -0.11722961 121.03728333 -0.11352539 119.76928711 C-0.11367142 118.48166977 -0.11381744 117.19405243 -0.1139679 115.86741638 C-0.11425586 112.3262524 -0.10835936 108.78512201 -0.10139394 105.24396586 C-0.09516017 101.54705012 -0.09455658 97.85013369 -0.09336853 94.1532135 C-0.09025528 87.14796101 -0.08204199 80.14272405 -0.07201904 73.13747841 C-0.0608577 65.16421124 -0.0553474 57.19094335 -0.05032361 49.21767032 C-0.03985936 32.81176968 -0.02151397 16.40589044 0 0 Z " fill="#1B1B1B" transform="translate(684,816)"/>
<path d="M0 0 C5.17655386 3.81290923 8.16165607 9.96543696 10.15234375 15.9375 C10.92642312 27.11723654 10.13268487 35.46944569 4.15234375 45.1875 C-0.81223005 50.45295706 -7.5515397 53.52082751 -14.6484375 54.41796875 C-24.05329788 54.61646329 -31.65077451 53.76724217 -39.09765625 47.8125 C-45.09176736 42.01020045 -48.05109109 37.04637965 -48.27929688 28.63037109 C-48.30757785 17.74455215 -47.09773996 10.31319051 -39.29296875 2.14453125 C-28.23422339 -7.83660474 -12.44176548 -7.15467275 0 0 Z " fill="#FAFAFA" transform="translate(998.84765625,876.0625)"/>
<path d="M0 0 C5.12803192 4.29352511 9.9356015 8.78839242 14.65625 13.5234375 C15.36221313 14.22844391 16.06817627 14.93345032 16.79553223 15.65982056 C18.27914202 17.14275378 19.76150552 18.62693482 21.24267578 20.11230469 C23.4901006 22.36507705 25.74280229 24.61247237 27.99609375 26.859375 C29.44563313 28.30957542 30.89486217 29.76008612 32.34375 31.2109375 C33.00749634 31.87265961 33.67124268 32.53438171 34.35510254 33.21615601 C38.17642699 37.0563734 41.79180673 41.01380283 45.33297729 45.11282349 C47.79733311 47.90263217 50.42101802 50.5086854 53.08203125 53.109375 C54.18957993 54.20429883 55.29699818 55.29935461 56.40429688 56.39453125 C58.11849118 58.08378913 59.83428416 59.77136541 61.55249023 61.45654297 C63.23339593 63.10726698 64.90803936 64.76414432 66.58203125 66.421875 C67.09659378 66.92297791 67.61115631 67.42408081 68.14131165 67.94036865 C70.70135694 70.48230965 72.49173055 72.73931335 74 76 C66.55869747 76.06971429 59.11746614 76.12291946 51.67590237 76.15543652 C48.21993354 76.17104837 44.76418925 76.19220356 41.30834961 76.22631836 C37.32929228 76.26534939 33.35032378 76.27974632 29.37109375 76.29296875 C27.52226845 76.31619453 27.52226845 76.31619453 25.63609314 76.33988953 C18.03140906 76.34137415 12.49459696 76.09049862 6.6015625 70.87890625 C5.94929687 70.11449219 5.29703125 69.35007812 4.625 68.5625 C3.95726562 67.80066406 3.28953125 67.03882813 2.6015625 66.25390625 C-0.17900652 62.340764 -0.12343476 58.75494525 -0.11352539 54.03808594 C-0.11344986 52.83714294 -0.11337433 51.63619995 -0.11329651 50.39886475 C-0.10813522 49.10708313 -0.10297394 47.81530151 -0.09765625 46.484375 C-0.09579017 45.14487765 -0.09436716 43.80537962 -0.09336853 42.46588135 C-0.08955835 38.94777528 -0.07974091 35.42971079 -0.06866455 31.91162109 C-0.05841817 28.31869061 -0.053864 24.72575339 -0.04882812 21.1328125 C-0.03811725 14.08852471 -0.02105887 7.04426507 0 0 Z " fill="#FAFAFA" transform="translate(723,225)"/>
<path d="M0 0 C6.95635071 -0.06907741 13.91149883 -0.12875129 20.86791992 -0.16479492 C23.23156784 -0.17982941 25.59518811 -0.20026242 27.95874023 -0.22631836 C31.36709441 -0.26293645 34.77507792 -0.27978031 38.18359375 -0.29296875 C39.23083115 -0.30845261 40.27806854 -0.32393646 41.35704041 -0.33988953 C49.00650101 -0.34162222 55.71743827 0.43103865 61.875 5.25 C66.33539789 11.02227962 67.68997963 15.96784705 67.48046875 23.2109375 C66.64930157 28.0357616 64.31986528 31.47454673 61 35 C53.43851226 40.09578522 44.74040683 40.28739875 35.9375 40.1953125 C34.90560547 40.1924826 33.87371094 40.18965271 32.81054688 40.18673706 C29.54024268 40.17561252 26.27022032 40.15052226 23 40.125 C20.77213939 40.11496022 18.54427446 40.10583612 16.31640625 40.09765625 C10.8774103 40.07740682 5.43901771 40.03824309 0 40 C0 26.8 0 13.6 0 0 Z " fill="#F9F9F9" transform="translate(246,840)"/>
<path d="M0 0 C23.1 0 46.2 0 70 0 C70 7.92 70 15.84 70 24 C46.9 24 23.8 24 0 24 C0 16.08 0 8.16 0 0 Z " fill="#191919" transform="translate(668,432)"/>
<path d="M0 0 C5.56183768 3.30101435 10.06544332 8.06505767 12.546875 14.08984375 C13.51936749 21.16344704 12.98066712 27.10866296 9.11328125 33.1796875 C5.9466084 37.04129105 2.31123645 39.50172327 -2.453125 41.08984375 C-9.64004995 41.59487091 -16.21947986 41.98587196 -22.453125 38.08984375 C-27.29836106 33.35472669 -30.30269484 28.265785 -30.55078125 21.37890625 C-30.17063601 14.61046667 -28.90100958 9.55621565 -23.99609375 4.625 C-17.12401676 -1.37719383 -8.80833876 -3.26806199 0 0 Z " fill="#1B1B1B" transform="translate(617.453125,677.91015625)"/>
<path d="M0 0 C2.5 0.125 2.5 0.125 3.5 1.125 C3.57319621 3.82154854 3.59242537 6.49191458 3.5625 9.1875 C3.55798828 9.94611328 3.55347656 10.70472656 3.54882812 11.48632812 C3.5370068 13.36591871 3.51907078 15.24546899 3.5 17.125 C4.55574219 16.39603516 4.55574219 16.39603516 5.6328125 15.65234375 C10.4282343 13.09783432 15.20044094 13.49945523 20.5 14.125 C24.46416696 15.37350098 27.00441243 17.62941243 29.9375 20.5625 C32.34462267 26.05073969 32.34400329 31.2316553 31.5 37.125 C29.85637444 41.23056683 27.41583544 43.43253906 23.9375 46.0625 C18.86482624 47.63041734 13.7605244 47.87231684 8.5 47.125 C6.1328125 45.6015625 6.1328125 45.6015625 4.5 44.125 C3.84 45.115 3.18 46.105 2.5 47.125 C-0.0625 47.375 -0.0625 47.375 -2.5 47.125 C-4.05906782 45.56593218 -3.62722371 44.06345719 -3.62939453 41.89648438 C-3.63254669 40.99885376 -3.63569885 40.10122314 -3.63894653 39.1763916 C-3.6369223 38.20036987 -3.63489807 37.22434814 -3.6328125 36.21875 C-3.63376923 35.2237146 -3.63472595 34.2286792 -3.63571167 33.20349121 C-3.6363936 31.09513282 -3.63453844 28.98677235 -3.63037109 26.87841797 C-3.62502303 23.63894973 -3.63031567 20.39962015 -3.63671875 17.16015625 C-3.63605797 15.11718719 -3.63477681 13.07421822 -3.6328125 11.03125 C-3.63483673 10.05522827 -3.63686096 9.07920654 -3.63894653 8.0736084 C-3.63579437 7.17597778 -3.63264221 6.27834717 -3.62939453 5.35351562 C-3.62859894 4.55933228 -3.62780334 3.76514893 -3.62698364 2.94689941 C-3.42579652 0.06036458 -2.8980126 0.14490063 0 0 Z " fill="#242323" transform="translate(495.5,982.875)"/>
<path d="M0 0 C0.74759079 0.0028299 1.49518158 0.00565979 2.26542664 0.00857544 C4.63935755 0.01971781 7.012903 0.04481088 9.38671875 0.0703125 C11.00194765 0.08035001 12.61718251 0.08947451 14.23242188 0.09765625 C18.17983469 0.11963761 22.12696149 0.15412593 26.07421875 0.1953125 C26.34151387 7.02288779 26.39696909 11.56106381 22.15234375 17.14453125 C16.07924419 23.13772161 9.19838514 25.542572 0.76171875 25.6953125 C-10.53290925 25.14739229 -10.53290925 25.14739229 -15.30078125 21.2578125 C-17.97767092 17.86022177 -18.32847503 14.53105896 -18.2734375 10.26171875 C-17.6348055 6.46580496 -15.71511321 4.79868899 -12.92578125 2.1953125 C-8.69271398 -0.04089972 -4.67982103 -0.06729021 0 0 Z " fill="#F8F8F8" transform="translate(845.92578125,907.8046875)"/>
<path d="M0 0 C38.94 0 77.88 0 118 0 C118 7.59 118 15.18 118 23 C116.20011601 24.79988399 113.75000124 24.11993004 111.35444641 24.12442017 C110.54452744 24.12082489 109.73460846 24.11722961 108.90014648 24.11352539 C108.05143982 24.11367142 107.20273315 24.11381744 106.32830811 24.1139679 C103.50921109 24.11326848 100.69017929 24.10547478 97.87109375 24.09765625 C95.92196183 24.09579217 93.97282945 24.09436822 92.0236969 24.09336853 C86.88293168 24.08954255 81.74219453 24.07971159 76.60144043 24.06866455 C71.35994852 24.05845215 66.1184521 24.05387128 60.87695312 24.04882812 C50.58462108 24.03808939 40.29231726 24.02049195 30 24 C30 34.89 30 45.78 30 57 C53.43 57 76.86 57 101 57 C101 57.33 101 57.66 101 58 C77.24 58 53.48 58 29 58 C29 46.45 29 34.9 29 23 C57.71 23 86.42 23 116 23 C116 15.74 116 8.48 116 1 C114.35 1.33 112.7 1.66 111 2 C109.4345989 2.0836778 107.86626468 2.12207947 106.29862976 2.12025452 C104.92806065 2.12232076 104.92806065 2.12232076 103.52980328 2.12442875 C102.53601068 2.12083064 101.54221807 2.11723253 100.51831055 2.11352539 C98.91163246 2.11370619 98.91163246 2.11370619 97.27249622 2.11389065 C93.81054916 2.11314517 90.34865616 2.1055335 86.88671875 2.09765625 C84.74727403 2.0961857 82.60782894 2.09516569 80.46838379 2.09460449 C72.54141703 2.08936469 64.61445798 2.07540347 56.6875 2.0625 C30.1121875 2.0315625 30.1121875 2.0315625 3 2 C3 44.9 3 87.8 3 132 C11.58 132 20.16 132 29 132 C29 132.33 29 132.66 29 133 C19.43 133 9.86 133 0 133 C0 89.11 0 45.22 0 0 Z " fill="#323232" transform="translate(537,816)"/>
<path d="M0 0 C2.65234069 1.03787245 3.85343897 2.02290432 6 4 C6.8971875 4.7425 6.8971875 4.7425 7.8125 5.5 C11.00385894 9.53119024 10 13.87098385 10 19 C1.75 19 -6.5 19 -15 19 C-12.83333333 24.83333333 -12.83333333 24.83333333 -10 26 C-8.23229673 26.12240135 -6.45939538 26.17551153 -4.6875 26.1875 C-3.27017578 26.20876953 -3.27017578 26.20876953 -1.82421875 26.23046875 C1.14406882 25.98824335 3.30867165 25.24026607 6 24 C8 26 8 26 8 30 C1.40132279 33.79222761 -4.55006773 33.79631105 -12 33 C-16.86927937 30.7332665 -20.71413148 27.2146713 -22.75 22.125 C-23.56950921 15.15917173 -22.94148304 10.0103102 -18.69921875 4.2265625 C-13.47930846 -1.2912583 -7.17334905 -1.09862103 0 0 Z " fill="#1D1D1D" transform="translate(667,997)"/>
<path d="M0 0 C3.06606559 1.48033479 5.14788434 3.1364453 7 6 C7.97400452 9.09891248 8.12872854 11.92968029 8.1328125 15.16796875 C8.13474609 16.63073242 8.13474609 16.63073242 8.13671875 18.12304688 C8.13285156 19.13431641 8.12898437 20.14558594 8.125 21.1875 C8.13080078 22.72180664 8.13080078 22.72180664 8.13671875 24.28710938 C8.13542969 25.25841797 8.13414062 26.22972656 8.1328125 27.23046875 C8.13168457 28.12145264 8.13055664 29.01243652 8.12939453 29.93041992 C8 32 8 32 7 33 C5.00041636 33.04080783 2.99954746 33.04254356 1 33 C1 32.01 1 31.02 1 30 C0.29746094 30.4846875 -0.40507813 30.969375 -1.12890625 31.46875 C-5.93348375 34.03119133 -10.69459743 33.73745812 -16 33 C-19.23557457 31.76198903 -19.8351046 30.94666318 -22 28 C-22.83378969 24.79801598 -22.88542919 22.19448963 -22 19 C-19.61302517 15.84711113 -16.74491037 14.24830346 -13 13 C-10.77181559 12.93062938 -8.54165476 12.91542916 -6.3125 12.9375 C-4.54326172 12.95103516 -4.54326172 12.95103516 -2.73828125 12.96484375 C-1.83464844 12.97644531 -0.93101562 12.98804688 0 13 C0 11.35 0 9.7 0 8 C-3.20700089 6.9309997 -5.56992069 6.86667471 -8.9375 6.875 C-9.97777344 6.87242187 -11.01804687 6.86984375 -12.08984375 6.8671875 C-14.57665971 6.98067977 -16.63092407 7.28071429 -19 8 C-19.33 6.35 -19.66 4.7 -20 3 C-13.92184015 -1.36649414 -7.12981283 -0.96037349 0 0 Z " fill="#232323" transform="translate(756,997)"/>
<path d="M0 0 C2.8125 -0.3125 2.8125 -0.3125 6 0 C8.90140993 3.97400563 10.72711443 8.63125605 12.6875 13.125 C13.00783203 13.84042969 13.32816406 14.55585937 13.65820312 15.29296875 C16 20.63566098 16 20.63566098 16 24 C16.66 24 17.32 24 18 24 C18.14115234 23.03126953 18.14115234 23.03126953 18.28515625 22.04296875 C19.24828307 17.94310104 20.82124995 14.19347517 22.4375 10.3125 C22.75009766 9.54099609 23.06269531 8.76949219 23.38476562 7.97460938 C23.84206055 6.86762695 23.84206055 6.86762695 24.30859375 5.73828125 C24.58501709 5.06837158 24.86144043 4.39846191 25.14624023 3.70825195 C26 2 26 2 28 0 C31.125 -0.125 31.125 -0.125 34 0 C33.35992972 4.01163007 32.09266039 7.34858584 30.41796875 11.04296875 C29.89783203 12.19990234 29.37769531 13.35683594 28.84179688 14.54882812 C28.02291992 16.3499707 28.02291992 16.3499707 27.1875 18.1875 C26.11668587 20.55517466 25.04764557 22.92365243 23.98046875 25.29296875 C23.46830811 26.42919678 22.95614746 27.5654248 22.4284668 28.73608398 C20.80396815 32.44791485 19.32614272 36.19967619 17.91992188 39.99902344 C16.50215077 43.08290136 14.58429155 44.83478276 12 47 C11.505 47.495 11.505 47.495 11 48 C9.33570949 48.09823937 7.66718069 48.12973631 6 48.125 C4.63875 48.12886719 4.63875 48.12886719 3.25 48.1328125 C1 48 1 48 0 47 C-0.04063832 45.33382885 -0.042721 43.66611905 0 42 C1.258125 41.938125 2.51625 41.87625 3.8125 41.8125 C7.36683806 41.36504421 7.36683806 41.36504421 9.9375 38.8125 C11.65754145 34.2594491 12.53545185 31.36532132 10.70703125 26.703125 C10.08183594 25.56359375 9.45664062 24.4240625 8.8125 23.25 C8.15692561 22.02385726 7.50459315 20.79597581 6.85546875 19.56640625 C6.53626465 18.96586426 6.21706055 18.36532227 5.88818359 17.74658203 C4.25136866 14.52784261 2.9935172 11.16967846 1.7265625 7.79296875 C1.13947196 6.00954539 1.13947196 6.00954539 0 5 C-0.04063832 3.33382885 -0.042721 1.66611905 0 0 Z " fill="#1D1E1E" transform="translate(539,997)"/>
<path d="M0 0 C8.91 0 17.82 0 27 0 C27 6.61812525 26.77265816 6.95149887 22.4375 11.3125 C17.92200727 16.00141848 13.91790777 20.80451361 10 26 C15.94 26.33 21.88 26.66 28 27 C28 28.65 28 30.3 28 32 C26.19720809 33.80279191 23.45952299 33.13036605 21.03125 33.1328125 C19.82082031 33.13410156 18.61039063 33.13539062 17.36328125 33.13671875 C16.08839844 33.13285156 14.81351563 33.12898438 13.5 33.125 C12.22511719 33.12886719 10.95023438 33.13273437 9.63671875 33.13671875 C7.82107422 33.13478516 7.82107422 33.13478516 5.96875 33.1328125 C4.84919922 33.13168457 3.72964844 33.13055664 2.57617188 33.12939453 C0 33 0 33 -1 32 C-1.34765625 29.765625 -1.34765625 29.765625 -1 27 C0.94140625 24.421875 0.94140625 24.421875 3.5625 21.75 C8.0602805 17.03468816 12.07800796 12.20090248 16 7 C10.72 6.67 5.44 6.34 0 6 C0 4.02 0 2.04 0 0 Z " fill="#1E1E1E" transform="translate(692,997)"/>
<path d="M0 0 C0.78186676 0.00359528 1.56373352 0.00719055 2.36929321 0.01089478 C3.18873917 0.01074875 4.00818512 0.01060272 4.85246277 0.01045227 C7.57416385 0.01115164 10.29579737 0.01894515 13.01748657 0.02676392 C14.89935773 0.02862801 16.78122938 0.03005195 18.6631012 0.03105164 C23.62631561 0.0348775 28.58950096 0.04470836 33.55270386 0.05575562 C38.61322639 0.06596827 43.67375359 0.07054894 48.73428345 0.07559204 C58.67114521 0.08633057 68.60798535 0.10340781 78.54483032 0.12442017 C78.92701799 1.78056674 79.25878134 3.44899041 79.54483032 5.12442017 C77.77900669 6.8902438 75.44111033 6.24427577 73.08966064 6.24884033 C71.9168605 6.24344742 71.9168605 6.24344742 70.72036743 6.23794556 C69.90092148 6.23809158 69.08147552 6.23823761 68.23719788 6.23838806 C65.51549679 6.23768869 62.79386327 6.22989518 60.07217407 6.22207642 C58.19030291 6.22021232 56.30843127 6.21878838 54.42655945 6.2177887 C49.46334503 6.21396283 44.50015968 6.20413197 39.53695679 6.19308472 C34.47643426 6.18287206 29.41590705 6.17829139 24.3553772 6.17324829 C14.41851544 6.16250976 4.48167529 6.14543253 -5.45516968 6.12442017 C-5.83735735 4.46827359 -6.16912069 2.79984992 -6.45516968 1.12442017 C-4.68934605 -0.64140346 -2.35144969 0.00456456 0 0 Z " fill="#1F1F1F" transform="translate(373.4551696777344,1008.8755798339844)"/>
<path d="M0 0 C0.77251602 0.00359528 1.54503204 0.00719055 2.34095764 0.01089478 C3.55549622 0.01067574 3.55549622 0.01067574 4.79457092 0.01045227 C7.48380671 0.01115163 10.17297412 0.01894507 12.86219788 0.02676392 C14.72164878 0.02862802 16.58110018 0.03005196 18.44055176 0.03105164 C23.34458258 0.03487746 28.24858398 0.04470829 33.15260315 0.05575562 C38.15280255 0.06596836 43.15300669 0.07054896 48.1532135 0.07559204 C57.97158583 0.0863305 67.78993629 0.10340769 77.60829163 0.12442017 C77.9904793 1.78056674 78.32224264 3.44899041 78.60829163 5.12442017 C76.8539 6.8788118 74.55331707 6.2442498 72.21658325 6.24884033 C71.44406723 6.24524506 70.67155121 6.24164978 69.87562561 6.23794556 C68.66108704 6.2381646 68.66108704 6.2381646 67.42201233 6.23838806 C64.73277654 6.2376887 62.04360913 6.22989526 59.35438538 6.22207642 C57.49493447 6.22021232 55.63548307 6.21878838 53.77603149 6.2177887 C48.87200067 6.21396287 43.96799927 6.20413205 39.0639801 6.19308472 C34.0637807 6.18287197 29.06357657 6.17829137 24.06336975 6.17324829 C14.24499742 6.16250983 4.42664697 6.14543265 -5.39170837 6.12442017 C-5.77389604 4.46827359 -6.10565939 2.79984992 -6.39170837 1.12442017 C-4.63731674 -0.62997146 -2.33673382 0.00459054 0 0 Z " fill="#1E1E1E" transform="translate(808.3917083740234,1008.8755798339844)"/>
<path d="M0 0 C3.64366427 0.67009918 5.15820913 1.42881357 7.37890625 4.4375 C8.85613842 9.5726404 9.01052314 13.19604612 6.56640625 18 C4.29554944 20.53038331 3.46689732 21.28537381 0.171875 21.74609375 C-4.61623417 21.98298671 -6.85704518 22.03345788 -10.74609375 19 C-12.94136458 15.68357299 -13.35554157 12.55459154 -13.08984375 8.62890625 C-11.55664159 1.46118615 -6.93638469 -0.49619443 0 0 Z " fill="#F5F5F5" transform="translate(511.62109375,1002.5625)"/>
<path d="M0 0 C3.53684081 2.99862591 5.78275426 5.08823745 6.3125 9.75 C5.91753151 13.85767229 4.5942368 15.82926614 2 19 C-0.3201862 20.70146988 -1.9710636 20.99485575 -4.8125 21.5 C-8.74845091 20.88259594 -10.7559974 19.61436244 -13.6328125 16.91015625 C-15.70700982 14.01220628 -15.84381486 11.68166804 -15.56640625 8.1875 C-14.59487413 4.43537593 -12.82868222 2.6313323 -10 0 C-6.1544104 -1.2818632 -3.93271581 -0.94927623 0 0 Z " fill="#1D1D1D" transform="translate(632,640)"/>
<path d="M0 0 C1.00023193 0.00523682 2.00046387 0.01047363 3.03100586 0.01586914 C4.1105957 0.0190918 5.19018555 0.02231445 6.30249023 0.02563477 C8.00695312 0.03820312 8.00695312 0.03820312 9.74584961 0.05102539 C11.45611328 0.05779297 11.45611328 0.05779297 13.20092773 0.06469727 C16.02845312 0.07652792 18.85587601 0.09301129 21.68334961 0.11352539 C21.68334961 0.44352539 21.68334961 0.77352539 21.68334961 1.11352539 C20.2930957 1.2044043 20.2930957 1.2044043 18.87475586 1.29711914 C17.07844727 1.42280273 17.07844727 1.42280273 15.24584961 1.55102539 C14.05088867 1.63223633 12.85592773 1.71344727 11.62475586 1.79711914 C8.79764717 1.79008653 8.79764717 1.79008653 7.68334961 3.11352539 C5.04334961 3.11352539 2.40334961 3.11352539 -0.31665039 3.11352539 C-0.31665039 44.36352539 -0.31665039 85.61352539 -0.31665039 128.11352539 C-0.64665039 128.11352539 -0.97665039 128.11352539 -1.31665039 128.11352539 C-1.64665039 131.41352539 -1.97665039 134.71352539 -2.31665039 138.11352539 C-2.64665039 138.11352539 -2.97665039 138.11352539 -3.31665039 138.11352539 C-3.33997865 120.26821689 -3.35762921 102.42291233 -3.36846256 84.5775919 C-3.37362568 76.29228265 -3.38066866 68.00698286 -3.39208984 59.72167969 C-3.40203622 52.50282931 -3.40850371 45.28398578 -3.41073889 38.06512874 C-3.41204607 34.24044284 -3.41513242 30.41577652 -3.42238045 26.59109688 C-3.42913993 22.99526752 -3.4312675 19.39946593 -3.42975807 15.80363083 C-3.43016675 13.84646502 -3.43556232 11.88930227 -3.44107056 9.93214417 C-3.43969589 8.7780304 -3.43832123 7.62391663 -3.43690491 6.43482971 C-3.4378267 5.42546639 -3.43874849 4.41610308 -3.43969822 3.37615299 C-3.27164648 0.28598458 -3.09402999 0.15162019 0 0 Z " fill="#333333" transform="translate(928.316650390625,810.886474609375)"/>
<path d="M0 0 C12.89675583 -0.68884749 12.89675583 -0.68884749 16.625 1.8125 C18.45650536 3.49941283 20.23930599 5.23930599 22 7 C22 10.3 22 13.6 22 17 C14.08 16.67 6.16 16.34 -2 16 C-2.33 14.68 -2.66 13.36 -3 12 C-0.38342412 7.77971632 1.4598436 5.83384679 6.3125 4.625 C8.1378125 4.315625 8.1378125 4.315625 10 4 C7.03 3.67 4.06 3.34 1 3 C0.67 2.01 0.34 1.02 0 0 Z " fill="#1F1F1F" transform="translate(654,997)"/>
<path d="M0 0 C1.98 0 3.96 0 6 0 C6 1.32 6 2.64 6 4 C6.66 4 7.32 4 8 4 C8 3.34 8 2.68 8 2 C11.63423209 -0.32590854 14.77088331 -0.16265833 19 0 C19 1.98 19 3.96 19 6 C17.741875 6.268125 16.48375 6.53625 15.1875 6.8125 C12.01039023 7.60958408 9.91389413 8.18544981 8 11 C7.09166031 13.72501908 6.81640015 15.62233971 6.68359375 18.44921875 C6.64169922 19.29677734 6.59980469 20.14433594 6.55664062 21.01757812 C6.51732422 21.89865234 6.47800781 22.77972656 6.4375 23.6875 C6.39431641 24.58017578 6.35113281 25.47285156 6.30664062 26.39257812 C6.20064647 28.59490108 6.09857949 30.79733473 6 33 C4.02 33 2.04 33 0 33 C0 22.11 0 11.22 0 0 Z " fill="#1A1919" transform="translate(613,997)"/>
<path d="M0 0 C2.09865224 1.59827914 2.88053104 2.56461982 3.58203125 5.12109375 C3.65808594 5.88550781 3.73414063 6.64992188 3.8125 7.4375 C3.90144531 8.19933594 3.99039063 8.96117187 4.08203125 9.74609375 C3.98727538 12.349624 3.36949985 13.8020964 2 16 C-1.43800392 18.54666957 -4.85106275 18.50951861 -9 18 C-12.07858499 15.96944394 -13.645391 14.4855968 -14.515625 10.83984375 C-14.75526106 7.5775255 -14.68096853 5.09450214 -12.92578125 2.2734375 C-8.67895259 -1.89194513 -5.30107769 -1.39044661 0 0 Z " fill="#1D1C1C" transform="translate(655,674)"/>
<path d="M0 0 C0.73605469 0.02255859 1.47210937 0.04511719 2.23046875 0.06835938 C4.02953842 0.12677073 5.82754753 0.21643663 7.625 0.3125 C7.625 1.6325 7.625 2.9525 7.625 4.3125 C6.86574219 4.36148438 6.10648438 4.41046875 5.32421875 4.4609375 C3.83341797 4.57308594 3.83341797 4.57308594 2.3125 4.6875 C0.83330078 4.79191406 0.83330078 4.79191406 -0.67578125 4.8984375 C-3.59028433 5.15115472 -3.59028433 5.15115472 -6.375 7.3125 C-6.62530977 9.89630177 -6.62530977 9.89630177 -6.375 12.3125 C-3.94112247 13.52943876 -1.95661154 13.63209896 0.75 13.875 C1.66007813 13.95878906 2.57015625 14.04257813 3.5078125 14.12890625 C4.55582031 14.21978516 4.55582031 14.21978516 5.625 14.3125 C5.625 15.6325 5.625 16.9525 5.625 18.3125 C1.4091084 20.4204458 -3.79529365 19.81936854 -8.375 19.3125 C-11.61911411 18.08999376 -12.21024948 17.25896599 -14.375 14.3125 C-15.20918816 11.10898573 -15.4726689 8.45484625 -14.375 5.3125 C-9.81578838 0.32277459 -6.5879193 -0.38717428 0 0 Z " fill="#222223" transform="translate(748.375,1010.6875)"/>
<path d="M0 0 C3.06606559 1.48033479 5.14788434 3.1364453 7 6 C7.98462875 9.11663833 8.11659592 11.94550143 8.09765625 15.203125 C8.09443359 16.1828125 8.09121094 17.1625 8.08789062 18.171875 C8.07951172 19.18765625 8.07113281 20.2034375 8.0625 21.25 C8.05798828 22.28125 8.05347656 23.3125 8.04882812 24.375 C8.03706088 26.91672573 8.02062011 29.45833319 8 32 C7.67 32 7.34 32 7 32 C6.505 22.1 6.505 22.1 6 12 C4.02 12.33 2.04 12.66 0 13 C0 11.35 0 9.7 0 8 C-3.20700089 6.9309997 -5.56992069 6.86667471 -8.9375 6.875 C-9.97777344 6.87242187 -11.01804687 6.86984375 -12.08984375 6.8671875 C-14.57665971 6.98067977 -16.63092407 7.28071429 -19 8 C-19.33 6.35 -19.66 4.7 -20 3 C-13.92184015 -1.36649414 -7.12981283 -0.96037349 0 0 Z " fill="#2D2D2D" transform="translate(756,997)"/>
<path d="M0 0 C-0.33 0.99 -0.66 1.98 -1 3 C-2.65 3.66 -4.3 4.32 -6 5 C-5.67 28.1 -5.34 51.2 -5 75 C24.04 75.33 53.08 75.66 83 76 C83 76.33 83 76.66 83 77 C38.45 77.495 38.45 77.495 -7 78 C-7.103125 65.8725 -7.20625 53.745 -7.3125 41.25 C-7.35802002 37.4230957 -7.40354004 33.59619141 -7.45043945 29.65332031 C-7.47302246 24.97412109 -7.47302246 24.97412109 -7.47721863 22.78240967 C-7.48488835 21.25417807 -7.5024575 19.72597643 -7.52787781 18.19793701 C-7.56449843 15.88044836 -7.56953005 13.56480508 -7.56762695 11.24707031 C-7.57873001 9.94135071 -7.58983307 8.6356311 -7.60127258 7.29034424 C-7 4 -7 4 -4.58952332 1.54705811 C-2 0 -2 0 0 0 Z " fill="#F0F1F1" transform="translate(529,403)"/>
<path d="M0 0 C0.33 0 0.66 0 1 0 C1.10853983 2.22808159 1.18583307 4.45769932 1.25 6.6875 C1.29640625 7.92886719 1.3428125 9.17023437 1.390625 10.44921875 C0.93534955 14.58767263 -0.10460019 16.08346589 -3 19 C-8.52007376 23.00205347 -14.48060829 22.28482779 -21 22 C-21 21.34 -21 20.68 -21 20 C-19.68 19.67 -18.36 19.34 -17 19 C-17.66 18.34 -18.32 17.68 -19 17 C-17.7625 16.7525 -16.525 16.505 -15.25 16.25 C-11.40321865 15.24412784 -9.24454407 14.45314473 -7 11 C-6.09611656 7.69615019 -5.49137704 4.38791539 -5 1 C-3 3 -3 3 -1 6 C-0.67 4.02 -0.34 2.04 0 0 Z " fill="#1B1B1B" transform="translate(525,1008)"/>
<path d="M0 0 C2.75 1.125 2.75 1.125 5 3 C5.66 4.98 6.32 6.96 7 9 C0.4 9 -6.2 9 -13 9 C-10.34276179 2.35690447 -7.47932011 -1.09073418 0 0 Z " fill="#E4E4E4" transform="translate(664,1002)"/>
<path d="M0 0 C0.98484375 0.02707031 1.9696875 0.05414062 2.984375 0.08203125 C3.73203125 0.11683594 4.4796875 0.15164063 5.25 0.1875 C5.58 1.8375 5.91 3.4875 6.25 5.1875 C1.24614086 10.0693138 1.24614086 10.0693138 -3.4375 10.625 C-6.75 10.1875 -6.75 10.1875 -9.75 8.1875 C-10.1875 5.75 -10.1875 5.75 -9.75 3.1875 C-6.61946924 0.09362651 -4.30783646 -0.1538513 0 0 Z " fill="#E7E7E7" transform="translate(750.75,1014.8125)"/>
<path d="M0 0 C2.8125 -0.3125 2.8125 -0.3125 6 0 C8.3513346 3.33155849 10.03694698 6.99435923 11.75 10.6875 C12.19859375 11.64011719 12.6471875 12.59273437 13.109375 13.57421875 C13.40328125 14.37472656 13.6971875 15.17523437 14 16 C13.67 16.66 13.34 17.32 13 18 C12.608125 17.484375 12.21625 16.96875 11.8125 16.4375 C10.9153125 15.7259375 10.9153125 15.7259375 10 15 C7.40992227 15.367915 7.40992227 15.367915 5 16 C4.72285156 15.28972656 4.44570313 14.57945312 4.16015625 13.84765625 C3.79792969 12.92855469 3.43570313 12.00945313 3.0625 11.0625 C2.70285156 10.14597656 2.34320312 9.22945312 1.97265625 8.28515625 C1.2003782 6.07581467 1.2003782 6.07581467 0 5 C-0.04063832 3.33382885 -0.042721 1.66611905 0 0 Z " fill="#151515" transform="translate(539,997)"/>
<path d="M0 0 C1.4540625 0.0309375 1.4540625 0.0309375 2.9375 0.0625 C2.30933502 4.01199704 1.0729471 7.26142028 -0.625 10.875 C-1.08003906 11.85082031 -1.53507813 12.82664062 -2.00390625 13.83203125 C-2.35324219 14.56808594 -2.70257812 15.30414062 -3.0625 16.0625 C-3.3925 15.0725 -3.7225 14.0825 -4.0625 13.0625 C-5.3825 13.3925 -6.7025 13.7225 -8.0625 14.0625 C-8.3925 15.3825 -8.7225 16.7025 -9.0625 18.0625 C-9.7225 18.0625 -10.3825 18.0625 -11.0625 18.0625 C-5.57818739 0.11384056 -5.57818739 0.11384056 0 0 Z " fill="#292929" transform="translate(570.0625,996.9375)"/>
<path d="M0 0 C-0.33 0.99 -0.66 1.98 -1 3 C-2.65 3.66 -4.3 4.32 -6 5 C-6 29.09 -6 53.18 -6 78 C-6.33 78 -6.66 78 -7 78 C-7.11583441 68.42078318 -7.20468465 58.84180729 -7.25906086 49.262043 C-7.2851585 44.81376667 -7.32055889 40.36596937 -7.37719727 35.91796875 C-7.43151218 31.62559043 -7.46141928 27.33367291 -7.47438622 23.04097748 C-7.48362715 21.40305068 -7.50167292 19.76514921 -7.52865028 18.12741852 C-7.56493624 15.83341425 -7.56994592 13.54131524 -7.56762695 11.24707031 C-7.57873001 9.94135071 -7.58983307 8.6356311 -7.60127258 7.29034424 C-7 4 -7 4 -4.58952332 1.54705811 C-2 0 -2 0 0 0 Z " fill="#BABABB" transform="translate(529,403)"/>
<path d="M0 0 C0.74507812 0.01353516 1.49015625 0.02707031 2.2578125 0.04101562 C4.08885416 0.07622796 5.91952169 0.13003149 7.75 0.1875 C7.75 1.5075 7.75 2.8275 7.75 4.1875 C7.00234375 4.22488281 6.2546875 4.26226563 5.484375 4.30078125 C4.49953125 4.36652344 3.5146875 4.43226563 2.5 4.5 C1.52546875 4.55800781 0.5509375 4.61601563 -0.453125 4.67578125 C-3.56740817 5.24557328 -4.95286309 6.04791009 -7.25 8.1875 C-8.24 9.6725 -8.24 9.6725 -9.25 11.1875 C-11.1951 8.26985 -11.70276317 6.56212715 -12.25 3.1875 C-8.60142562 -0.47067589 -4.85390995 -0.16722835 0 0 Z " fill="#131212" transform="translate(748.25,1010.8125)"/>
<path d="M0 0 C1.65 0 3.3 0 5 0 C5 0.99 5 1.98 5 3 C6.32 3.66 7.64 4.32 9 5 C9 6.65 9 8.3 9 10 C7.68 9.67 6.36 9.34 5 9 C5.515625 9.94875 6.03125 10.8975 6.5625 11.875 C7.036875 12.90625 7.51125 13.9375 8 15 C7.67 15.66 7.34 16.32 7 17 C5.82592979 14.73272667 4.66060261 12.46165376 3.5 10.1875 C3.16613281 9.54490234 2.83226562 8.90230469 2.48828125 8.24023438 C0.99760916 5.30452301 0 3.33873483 0 0 Z " fill="#141314" transform="translate(545,1011)"/>
<path d="M0 0 C3.42931954 3.7559214 4.56429083 8.23466745 6 13 C5.01 12.67 4.02 12.34 3 12 C2.67 11.34 2.34 10.68 2 10 C0.35 10.33 -1.3 10.66 -3 11 C-3.625 8.625 -3.625 8.625 -4 6 C-3.34 5.34 -2.68 4.68 -2 4 C-1.30251417 2.68252676 -0.63040043 1.35085807 0 0 Z " fill="#2E2E2F" transform="translate(547,1002)"/>
<path d="M0 0 C0.99 0 1.98 0 3 0 C3.08112454 2.58396679 3.14054748 5.16537568 3.1875 7.75 C3.21263672 8.47960937 3.23777344 9.20921875 3.26367188 9.9609375 C3.32948616 14.78731876 3.03849871 15.94866839 0 20 C0 13.4 0 6.8 0 0 Z " fill="#242323" transform="translate(494,985)"/>
<path d="M0 0 C2.10388569 -0.05402274 4.20816714 -0.09280256 6.3125 -0.125 C8.07013672 -0.15980469 8.07013672 -0.15980469 9.86328125 -0.1953125 C13 0 13 0 16 2 C12.99686252 3.50156874 10.20932478 3.09281204 6.875 3.0625 C5.59367188 3.05347656 4.31234375 3.04445313 2.9921875 3.03515625 C1.51105469 3.01775391 1.51105469 3.01775391 0 3 C0 2.01 0 1.02 0 0 Z " fill="#E1E2E1" transform="translate(840,930)"/>
<path d="M0 0 C-0.33 0.99 -0.66 1.98 -1 3 C-2.65 3.66 -4.3 4.32 -6 5 C-6 13.91 -6 22.82 -6 32 C-6.33 32 -6.66 32 -7 32 C-7.14505993 27.41699875 -7.23399681 22.83458637 -7.3125 18.25 C-7.35439453 16.94804687 -7.39628906 15.64609375 -7.43945312 14.3046875 C-7.45556641 13.05429687 -7.47167969 11.80390625 -7.48828125 10.515625 C-7.51446533 9.36352539 -7.54064941 8.21142578 -7.56762695 7.02441406 C-7 4 -7 4 -4.59448242 1.59277344 C-2 0 -2 0 0 0 Z " fill="#C0C0C1" transform="translate(529,403)"/>
<path d="M0 0 C2.45840605 -0.02691685 4.91651882 -0.04679802 7.375 -0.0625 C8.07367187 -0.07087891 8.77234375 -0.07925781 9.4921875 -0.08789062 C14.7734375 -0.11328125 14.7734375 -0.11328125 17 1 C17 1.66 17 2.32 17 3 C13.37 3 9.74 3 6 3 C6 2.34 6 1.68 6 1 C4.02 1 2.04 1 0 1 C0 0.67 0 0.34 0 0 Z " fill="#222222" transform="translate(782,732)"/>
<path d="M0 0 C0 0.66 0 1.32 0 2 C-0.66 2 -1.32 2 -2 2 C-2.33 2.99 -2.66 3.98 -3 5 C-7.36228979 7.028972 -10.35656242 7.10558038 -15 6 C-12.29954818 4.19969878 -9.93322119 3.06622934 -6.9375 1.875 C-6.05964844 1.52179687 -5.18179687 1.16859375 -4.27734375 0.8046875 C-2 0 -2 0 0 0 Z " fill="#1E1F1F" transform="translate(462,919)"/>
<path d="M0 0 C-1.42857653 3.36048572 -3.16054598 5.27725861 -5.9375 7.625 C-6.62714844 8.21539062 -7.31679688 8.80578125 -8.02734375 9.4140625 C-10 11 -10 11 -13 13 C-12.52267796 8.752808 -10.1748408 6.98278704 -7.0625 4.25 C-6.16660156 3.45078125 -5.27070312 2.6515625 -4.34765625 1.828125 C-2 0 -2 0 0 0 Z " fill="#222223" transform="translate(650,391)"/>
<path d="M0 0 C3.04516202 2.83332467 5.16868601 5.65500311 7.25 9.25 C8.03117188 10.58804688 8.03117188 10.58804688 8.828125 11.953125 C9.21484375 12.62859375 9.6015625 13.3040625 10 14 C8.125 13.6875 8.125 13.6875 6 13 C4 10 4 10 4 7 C3.34 7 2.68 7 2 7 C1.34 4.69 0.68 2.38 0 0 Z " fill="#222223" transform="translate(670,623)"/>
<path d="M0 0 C1.98 0 3.96 0 6 0 C6.66 1.32 7.32 2.64 8 4 C7.01 5.32 6.02 6.64 5 8 C4.67 7.34 4.34 6.68 4 6 C4.33 5.01 4.66 4.02 5 3 C3.35 3.66 1.7 4.32 0 5 C0 3.35 0 1.7 0 0 Z " fill="#282828" transform="translate(539,997)"/>
<path d="M0 0 C3.44428265 1.44781793 5.36130962 3.27694609 7.75 6.125 C8.36359375 6.84945312 8.9771875 7.57390625 9.609375 8.3203125 C10.29773438 9.15175781 10.29773438 9.15175781 11 10 C10.67 10.66 10.34 11.32 10 12 C8.32737283 10.38113585 6.66204463 8.7547271 5 7.125 C4.071875 6.22007812 3.14375 5.31515625 2.1875 4.3828125 C0 2 0 2 0 0 Z " fill="#2E2E2F" transform="translate(771,238)"/>
<path d="M0 0 C0.33 0.99 0.66 1.98 1 3 C-0.21424393 4.49144105 -1.44706045 5.96777403 -2.6875 7.4375 C-3.37199219 8.26121094 -4.05648438 9.08492187 -4.76171875 9.93359375 C-7.24022612 12.22177944 -8.69136813 12.68130516 -12 13 C-11.319375 12.34 -10.63875 11.68 -9.9375 11 C-6.43274653 7.50531766 -3.22778212 3.74869221 0 0 Z " fill="#E6E5E6" transform="translate(496,924)"/>
<path d="M0 0 C1.4540625 0.0309375 1.4540625 0.0309375 2.9375 0.0625 C2.6075 1.7125 2.2775 3.3625 1.9375 5.0625 C0.9475 4.0725 -0.0425 3.0825 -1.0625 2.0625 C-1.7225 3.3825 -2.3825 4.7025 -3.0625 6.0625 C-4.0525 6.0625 -5.0425 6.0625 -6.0625 6.0625 C-3.76028481 0.07674051 -3.76028481 0.07674051 0 0 Z " fill="#2E2D2D" transform="translate(570.0625,996.9375)"/>
<path d="M0 0 C0 1.65 0 3.3 0 5 C-1.98 5.66 -3.96 6.32 -6 7 C-6.33 6.34 -6.66 5.68 -7 5 C-6.34 5 -5.68 5 -5 5 C-4.87625 4.360625 -4.7525 3.72125 -4.625 3.0625 C-4.41875 2.381875 -4.2125 1.70125 -4 1 C-2 0 -2 0 0 0 Z " fill="#161516" transform="translate(566,1010)"/>
<path d="M0 0 C3.63 0 7.26 0 11 0 C11 1.32 11 2.64 11 4 C10.01 4 9.02 4 8 4 C7.67 3.34 7.34 2.68 7 2 C4.67843403 1.59270772 2.3431213 1.25561323 0 1 C0 0.67 0 0.34 0 0 Z " fill="#151515" transform="translate(743,1025)"/>
<path d="M0 0 C2.97 0 5.94 0 9 0 C9 1.32 9 2.64 9 4 C6.36 4 3.72 4 1 4 C0.67 2.68 0.34 1.36 0 0 Z " fill="#1E1E1E" transform="translate(743,1026)"/>
<path d="M0 0 C0.99 0.66 1.98 1.32 3 2 C2.67 3.98 2.34 5.96 2 8 C0.68 7.67 -0.64 7.34 -2 7 C-1.34 4.69 -0.68 2.38 0 0 Z " fill="#20201F" transform="translate(568,998)"/>
<path d="M0 0 C0.99 0.33 1.98 0.66 3 1 C1.84826645 3.46800047 0.95216435 5.04783565 -1 7 C-3.125 6.625 -3.125 6.625 -5 6 C-3.35 4.02 -1.7 2.04 0 0 Z " fill="#E9E9E9" transform="translate(1001,917)"/>
<path d="M0 0 C0.66 0.33 1.32 0.66 2 1 C1.5875 1.350625 1.175 1.70125 0.75 2.0625 C-1.70762407 4.78344094 -3.24051885 7.78439652 -5 11 C-5.66 11 -6.32 11 -7 11 C-5.72278474 6.00724943 -3.82669043 3.42388092 0 0 Z " fill="#2B2A2B" transform="translate(507,384)"/>
<path d="M0 0 C0.66 0.33 1.32 0.66 2 1 C1.01 2.485 1.01 2.485 0 4 C-0.66 4 -1.32 4 -2 4 C-2.66 7.63 -3.32 11.26 -4 15 C-4.33 15 -4.66 15 -5 15 C-5.76681614 7.33183857 -5.76681614 7.33183857 -3.88671875 4.06640625 C-2.5 2.4375 -2.5 2.4375 0 0 Z " fill="#D4D2D3" transform="translate(504,1003)"/>
<path d="M0 0 C-0.66 1.32 -1.32 2.64 -2 4 C-4 4 -6 4 -8 4 C-7.1875 2.0625 -7.1875 2.0625 -6 0 C-3 -1 -3 -1 0 0 Z " fill="#262526" transform="translate(565,1016)"/>
<path d="M0 0 C2 2 2 2 2.125 5.625 C2.08375 6.73875 2.0425 7.8525 2 9 C1.01 9 0.02 9 -1 9 C-0.67 6.03 -0.34 3.06 0 0 Z " fill="#383939" transform="translate(568,543)"/>
<path d="M0 0 C3.3 0 6.6 0 10 0 C8.515 1.485 8.515 1.485 7 3 C3.3125 2.6875 3.3125 2.6875 0 2 C0 1.34 0 0.68 0 0 Z " fill="#EFEFF0" transform="translate(834,951)"/>
<path d="M0 0 C1.10844919 3.32534757 0.84454356 5.62182575 0 9 C-0.99 9.33 -1.98 9.66 -3 10 C-2.39009109 6.44219804 -1.4216319 3.3171411 0 0 Z " fill="#DEDDDE" transform="translate(565,1015)"/>
<path d="M0 0 C0.33 0 0.66 0 1 0 C2.02977875 4.76272672 2.39511469 7.65885463 0 12 C-0.33 12 -0.66 12 -1 12 C-0.67 8.04 -0.34 4.08 0 0 Z " fill="#DAD9DA" transform="translate(509,888)"/>
<path d="M0 0 C0 0.99 0 1.98 0 3 C-3.3 3 -6.6 3 -10 3 C-6.26223701 0.50815801 -4.5227786 0 0 0 Z " fill="#303030" transform="translate(523,378)"/>
<path d="M0 0 C0.99 0.33 1.98 0.66 3 1 C3 2.65 3 4.3 3 6 C0.03 6 -2.94 6 -6 6 C-6 5.67 -6 5.34 -6 5 C-2.535 4.505 -2.535 4.505 1 4 C0.34 3.01 -0.32 2.02 -1 1 C-0.67 0.67 -0.34 0.34 0 0 Z " fill="#ECEDEC" transform="translate(753,1004)"/>
<path d="M0 0 C0.33 1.32 0.66 2.64 1 4 C-0.65 5.32 -2.3 6.64 -4 8 C-4 4.09161134 -2.49432124 2.88405893 0 0 Z " fill="#222323" transform="translate(811,698)"/>
<path d="M0 0 C0.99 0.33 1.98 0.66 3 1 C2.67 1.99 2.34 2.98 2 4 C2.99 4.33 3.98 4.66 5 5 C3.02 5 1.04 5 -1 5 C-0.67 3.35 -0.34 1.7 0 0 Z " fill="#242524" transform="translate(368,1009)"/>
<path d="M0 0 C-0.7115625 0.680625 -0.7115625 0.680625 -1.4375 1.375 C-3.09027808 2.93258204 -3.09027808 2.93258204 -4 5 C-4.99 4.67 -5.98 4.34 -7 4 C-6.6875 2.0625 -6.6875 2.0625 -6 0 C-3 -1 -3 -1 0 0 Z " fill="#2F2F2F" transform="translate(744,1000)"/>
<path d="M0 0 C0 0.66 0 1.32 0 2 C-0.66 2 -1.32 2 -2 2 C-2.33 2.99 -2.66 3.98 -3 5 C-4.65 4.67 -6.3 4.34 -8 4 C-2.7826087 0 -2.7826087 0 0 0 Z " fill="#313232" transform="translate(462,919)"/>
<path d="M0 0 C1.65 1.32 3.3 2.64 5 4 C3.68 4 2.36 4 1 4 C1 5.98 1 7.96 1 10 C0.67 10 0.34 10 0 10 C0 6.7 0 3.4 0 0 Z " fill="#E5E5E5" transform="translate(950,937)"/>
<path d="M0 0 C1.42944945 2.35438733 2.08661261 3.48032433 1.625 6.25 C1.41875 6.8275 1.2125 7.405 1 8 C0.01 8 -0.98 8 -2 8 C-1.34 5.36 -0.68 2.72 0 0 Z " fill="#2E2E2E" transform="translate(1008,908)"/>
<path d="M0 0 C0.66 0 1.32 0 2 0 C2 2.31 2 4.62 2 7 C1.01 7 0.02 7 -1 7 C-1.04254356 5.00045254 -1.04080783 2.99958364 -1 1 C-0.67 0.67 -0.34 0.34 0 0 Z " fill="#212122" transform="translate(507,888)"/>
<path d="M0 0 C0.99 0.33 1.98 0.66 3 1 C1.35 2.65 -0.3 4.3 -2 6 C-2.66 5.34 -3.32 4.68 -4 4 C-2.68 2.68 -1.36 1.36 0 0 Z " fill="#272727" transform="translate(596,680)"/>
<path d="M0 0 C0.66 1.32 1.32 2.64 2 4 C0.68 5.32 -0.64 6.64 -2 8 C-2.33 7.01 -2.66 6.02 -3 5 C-1.5625 2.3125 -1.5625 2.3125 0 0 Z " fill="#282929" transform="translate(553,670)"/>
</svg>
